<svg width="48" height="49" viewBox="0 0 48 49" fill="none" xmlns="http://www.w3.org/2000/svg">
<rect y="0.5" width="48" height="48" rx="24" fill="#D9F3F8"/>
<path d="M16.2598 23.5199V28.4899C16.2598 30.3099 16.2598 30.3099 17.9798 31.4699L22.7098 34.1999C23.4198 34.6099 24.5798 34.6099 25.2898 34.1999L30.0198 31.4699C31.7398 30.3099 31.7398 30.3099 31.7398 28.4899V23.5199C31.7398 21.6999 31.7398 21.6999 30.0198 20.5399L25.2898 17.8099C24.5798 17.3999 23.4198 17.3999 22.7098 17.8099L17.9798 20.5399C16.2598 21.6999 16.2598 21.6999 16.2598 23.5199Z" stroke="#2F9DD8" stroke-width="1.5" stroke-linecap="round" stroke-linejoin="round"/>
<path d="M29.5 20.13V17.5C29.5 15.5 28.5 14.5 26.5 14.5H21.5C19.5 14.5 18.5 15.5 18.5 17.5V20.06" stroke="#2F9DD8" stroke-width="1.5" stroke-linecap="round" stroke-linejoin="round"/>
<path d="M24.6298 23.49L25.1998 24.38C25.2898 24.52 25.4898 24.66 25.6398 24.7L26.6598 24.96C27.2898 25.12 27.4598 25.66 27.0498 26.16L26.3798 26.97C26.2798 27.1 26.1998 27.33 26.2098 27.49L26.2698 28.54C26.3098 29.19 25.8498 29.52 25.2498 29.28L24.2698 28.89C24.1198 28.83 23.8698 28.83 23.7198 28.89L22.7398 29.28C22.1398 29.52 21.6798 29.18 21.7198 28.54L21.7798 27.49C21.7898 27.33 21.7098 27.09 21.6098 26.97L20.9398 26.16C20.5298 25.66 20.6998 25.12 21.3298 24.96L22.3498 24.7C22.5098 24.66 22.7098 24.51 22.7898 24.38L23.3598 23.49C23.7198 22.95 24.2798 22.95 24.6298 23.49Z" stroke="#2F9DD8" stroke-width="1.5" stroke-linecap="round" stroke-linejoin="round"/>
</svg>
