<svg width="102" height="32" viewBox="0 0 102 32" fill="none" xmlns="http://www.w3.org/2000/svg">
<mask id="mask0_1_15941" style="mask-type:luminance" maskUnits="userSpaceOnUse" x="-1" y="0" width="104" height="32">
<path d="M102.019 0H-0.0199356V31.9995H102.019V0Z" fill="white"/>
</mask>
<g mask="url(#mask0_1_15941)">
<path d="M55.3113 15.232C61.7568 12.3086 62.7102 2.76864 53.5416 2.76864H42.9246L39.0011 10.4621H40.8478L36.154 28.8496H48.4637C57.4442 28.9264 61.4837 18.3515 55.3113 15.232ZM48.4637 22.1563H45.3865L46.541 18.0019H49.4641C52.9264 18.6942 50.7726 22.3101 48.4637 22.1563ZM50.3104 13.3086H47.6944L48.4637 9.69271H51.3878C54.2119 10.3852 51.772 13.4626 50.3104 13.3086Z" fill="#A6AEBE" stroke="#A6AEBE" stroke-width="0.220518"/>
<path d="M80.514 12.595L84.5446 5.4797L79.0905 2.6348L78.3792 3.51284C75.4371 1.95534 60.0301 4.10577 59.0658 19.3037C59.642 32.053 73.9285 29.7596 75.3291 28.9507L79.2585 20.8283C75.4101 23.3631 67.531 24.5799 67.1979 16.9658C67.8892 10.687 75.302 8.3422 80.514 12.595ZM100.627 2.76935H88.236L84.2975 10.2326H86.3213L76.9827 28.8503H86.0212L87.8769 24.3598H93.426L93.5641 28.8503H101.884L100.627 2.76935ZM90.3908 18.3137L93.425 11.0706L93.5641 18.3137H90.3908Z" fill="#A6AEBE" stroke="#A6AEBE" stroke-width="0.220518"/>
<path d="M23.246 27.605L23.7272 27.4653L23.2 26.7359L23.246 27.605ZM15.344 27.4809L15.2509 28.1329C15.49 28.1096 15.7851 28.3161 15.9032 27.8534C15.8942 27.493 15.6191 27.4731 15.344 27.4809ZM19.1784 27.4653C19.1384 27.2878 18.9904 27.157 18.6192 27.2792L18.7443 27.9465C19.0484 27.879 19.2054 27.6988 19.1784 27.4653ZM10.5151 26.9191L10.3671 27.5122C10.6051 27.5221 10.8842 27.7153 11.0423 27.3639C11.0533 27.1437 11.0623 26.9244 10.5151 26.9191ZM18.8523 28.4435L18.9614 29.1268C19.2155 29.1332 19.4476 28.9802 19.3805 28.6611C19.3155 28.354 19.0574 28.4025 18.8523 28.4435Z" fill="#A6AEBE"/>
<path d="M28.9502 3.12031C20.729 -1.06782 10.9113 -0.951358 3.07825 2.93764C-0.961305 10.0484 -1.09035 19.9973 3.07825 28.8091C11.7076 33.1761 21.2522 32.8885 29.0112 28.9917C32.6576 21.5104 33.2599 12.508 28.9502 3.12031ZM15.0659 24.3529L14.5787 24.3584C14.4576 23.0119 14.1355 21.8801 13.4452 21.0141C10.279 17.0435 3.80655 20.0328 5.47019 13.2848C6.33452 9.83499 16.1983 7.80041 15.0659 24.3529ZM5.48118 17.688C6.17245 19.0953 10.5041 19.3257 12.0077 20.403C14.3936 22.1115 14.0505 24.3591 14.0505 24.3591H13.4883C12.3808 20.9647 9.27264 23.6522 6.78368 22.7381C5.22008 22.1821 4.08564 19.7725 5.48118 17.688ZM13.3732 28.7537L13.6063 26.9062L14.0255 26.9373L13.8394 28.971C13.6513 29.8668 12.3148 29.747 12.1467 28.8933L12.3638 26.7819L12.861 26.8598L12.6439 28.6295C12.671 29.2151 13.2582 29.1801 13.3732 28.7537ZM11.1424 29.2582L10.6652 29.1428C10.7212 28.748 11.1894 27.9446 10.264 27.9446L10.0059 28.9946L9.47872 28.8957L10.0389 26.375C11.4075 26.524 11.5275 26.9051 11.5545 27.314C11.5005 27.6312 11.4165 27.8527 11.1434 27.907C11.4625 28.1974 11.1464 28.8058 11.1424 29.2582ZM8.1082 26.4347C7.97615 26.6094 7.71303 27.2198 7.67401 27.7063C7.634 28.2218 8.12919 28.1132 8.25224 28.053C8.35228 28.0048 8.42631 27.5906 8.42631 27.5906L8.07917 27.4751L8.19423 27.1285L8.97554 27.3885L8.59939 28.6892L8.28127 28.6023L8.31027 28.4C7.92112 28.5774 7.20886 28.4443 7.12583 27.9955C7.04179 27.6347 7.29489 26.5412 7.70304 26.0303C8.1002 25.5335 9.06756 26.0191 9.09057 26.3193C9.11458 26.6184 8.99654 26.9551 8.99654 26.9551L8.63239 26.8864C8.63239 26.8864 8.65441 26.7784 8.68642 26.6081C8.71944 26.4277 8.24925 26.247 8.1082 26.4347ZM15.2049 28.5516L15.1119 29.6696L14.7247 29.6542L14.8638 26.9992C15.8332 27.0193 16.3884 27.1535 16.3704 27.8377C16.3124 28.7727 15.5551 28.5624 15.2049 28.5516ZM16.1713 24.3589H15.522C15.465 22.0597 15.9062 17.8544 14.6987 14.7595C13.7834 12.4134 11.4675 11.3581 10.9533 9.46285C10.141 6.46309 11.5245 3.21735 16.1713 2.96745C20.1998 3.38111 21.4383 6.49131 20.7511 9.38722C19.5696 12.2826 18.3871 11.8666 16.9166 14.7507C15.7151 17.8425 16.1723 21.8929 16.1713 24.3589ZM23.3721 28.6138L22.9219 28.7691L22.7818 26.0987L23.3091 25.9591L24.6135 28.1635L24.2564 28.3965L23.8212 27.7758L23.325 27.962L23.3721 28.6138ZM18.119 24.3589H17.5999C18.028 18.4542 25.4479 19.737 26.1261 17.688C27.2986 19.7193 26.8764 21.4321 25.6519 22.3101C22.6088 24.4927 19.6916 20.6949 18.119 24.3589ZM20.8721 27.3409L21.1052 28.5675C21.2503 28.8501 21.3483 28.7978 21.5714 28.7694C21.8285 28.5827 21.7745 28.4009 21.7264 28.1637L22.1766 28.1018C22.2936 28.9904 21.8715 29.0811 21.5554 29.1419C20.8781 29.1904 20.7451 29.0586 20.562 28.1794C20.455 27.427 20.2709 26.6324 20.9031 26.4872C21.9415 26.3286 21.8805 26.796 21.9745 27.1236L21.5243 27.2015C21.4523 26.9201 21.3493 26.8084 21.1202 26.8291C20.9121 26.9247 20.8271 27.0793 20.8721 27.3409ZM19.9247 28.6138C19.9467 29.0006 19.8157 29.2573 19.5676 29.3436L18.5122 29.5609L18.093 26.9992C18.3101 26.9639 19.3715 26.5748 19.6296 27.2789C19.7577 27.7089 19.6256 27.8631 19.4746 28.055C19.7607 28.1468 19.8567 28.3691 19.9247 28.6138ZM17.2137 15.7587C19.5656 9.13612 24.9477 10.3065 26.1421 13.285C27.7767 19.2618 22.5117 17.6227 19.1384 20.0736C17.863 21.1824 17.1927 22.4543 17.1827 24.3827H16.6044C16.5704 20.4987 16.5074 17.7484 17.2137 15.7587Z" fill="#A6AEBE"/>
</g>
</svg>
