<svg width="107" height="47" viewBox="0 0 107 47" fill="none" xmlns="http://www.w3.org/2000/svg">
<path d="M0 4.67854V1.77712H5.1863V14.5978H1.92221V4.67854H0ZM7.02587 8.05144C7.02587 10.0583 7.43085 11.648 8.24083 12.8207C9.05081 13.9933 10.3444 14.5796 12.1215 14.5796C13.8865 14.5796 15.1741 13.9933 15.984 12.8207C16.8061 11.648 17.2171 10.0583 17.2171 8.05144C17.2171 6.05672 16.8061 4.47907 15.984 3.3185C15.1741 2.14584 13.8865 1.55951 12.1215 1.55951C10.3444 1.55951 9.05081 2.14584 8.24083 3.3185C7.43085 4.47907 7.02587 6.05672 7.02587 8.05144ZM14.1344 8.05144C14.1344 9.19992 13.9954 10.0885 13.7173 10.7171C13.4513 11.3337 12.9194 11.642 12.1215 11.642C11.3115 11.642 10.7675 11.3337 10.4894 10.7171C10.2114 10.0885 10.0723 9.19992 10.0723 8.05144C10.0723 6.91505 10.2114 6.03858 10.4894 5.42203C10.7675 4.80548 11.3115 4.4972 12.1215 4.4972C12.9194 4.4972 13.4513 4.80548 13.7173 5.42203C13.9954 6.02649 14.1344 6.90296 14.1344 8.05144ZM18.696 8.05144C18.696 10.0583 19.101 11.648 19.911 12.8207C20.721 13.9933 22.0146 14.5796 23.7917 14.5796C25.5567 14.5796 26.8442 13.9933 27.6542 12.8207C28.4763 11.648 28.8873 10.0583 28.8873 8.05144C28.8873 6.05672 28.4763 4.47907 27.6542 3.3185C26.8442 2.14584 25.5567 1.55951 23.7917 1.55951C22.0146 1.55951 20.721 2.14584 19.911 3.3185C19.101 4.47907 18.696 6.05672 18.696 8.05144ZM25.8045 8.05144C25.8045 9.19992 25.6655 10.0885 25.3874 10.7171C25.1215 11.3337 24.5896 11.642 23.7917 11.642C22.9817 11.642 22.4376 11.3337 22.1596 10.7171C21.8815 10.0885 21.7426 9.19992 21.7426 8.05144C21.7426 6.91505 21.8815 6.03858 22.1596 5.42203C22.4376 4.80548 22.9817 4.4972 23.7917 4.4972C24.5896 4.4972 25.1215 4.80548 25.3874 5.42203C25.6655 6.02649 25.8045 6.90296 25.8045 8.05144ZM39.3243 9.68349H36.1872V12.8751H33.1951V9.68349H30.0579V6.83647H33.1951V3.62678H36.1872V6.83647H39.3243V9.68349ZM52.1581 7.99704C52.9318 8.17838 53.5423 8.55315 53.9896 9.12134C54.449 9.68954 54.6787 10.3484 54.6787 11.0979C54.6787 12.1981 54.31 13.0564 53.5725 13.6729C52.8472 14.2895 51.8014 14.5978 50.4354 14.5978H44.4693V1.77712H50.2903C51.5959 1.77712 52.6054 2.06122 53.3186 2.62941C54.0319 3.19761 54.3885 4.00759 54.3885 5.05935C54.3885 5.83306 54.183 6.47984 53.772 6.99968C53.361 7.50743 52.823 7.83988 52.1581 7.99704ZM47.5702 7.01781H49.6012C50.6771 7.01781 51.2151 6.55842 51.2151 5.63964C51.2151 4.72085 50.665 4.26146 49.5649 4.26146H47.5702V7.01781ZM49.7825 12.0772C50.931 12.0772 51.5053 11.6057 51.5053 10.6627C51.5053 10.2033 51.3541 9.8467 51.0519 9.59282C50.7497 9.32686 50.3205 9.19388 49.7644 9.19388H47.5702V12.0772H49.7825ZM56.0266 1.63205C56.0266 1.16057 56.1959 0.773712 56.5344 0.471481C56.8729 0.15716 57.3202 0 57.8763 0C58.4324 0 58.8797 0.15716 59.2182 0.471481C59.5567 0.773712 59.7259 1.16057 59.7259 1.63205C59.7259 2.09144 59.5567 2.4783 59.2182 2.79262C58.8797 3.09485 58.4324 3.24596 57.8763 3.24596C57.3202 3.24596 56.8729 3.09485 56.5344 2.79262C56.1959 2.4783 56.0266 2.09144 56.0266 1.63205ZM59.4177 4.47907V14.5978H56.3168V4.47907H59.4177ZM65.4029 4.35213C66.1766 4.35213 66.8415 4.52743 67.3976 4.87801C67.9537 5.2286 68.3648 5.70613 68.6307 6.31059V4.47907H71.7135V14.5434C71.7135 15.4863 71.5321 16.3326 71.1694 17.0821C70.8067 17.8437 70.2506 18.4482 69.5011 18.8955C68.7516 19.3428 67.8207 19.5665 66.7085 19.5665C65.1853 19.5665 63.9643 19.2038 63.0455 18.4784C62.1388 17.7652 61.5948 16.792 61.4134 15.5589H64.4781C64.5748 15.9699 64.7924 16.2903 65.1309 16.52C65.4815 16.7497 65.9348 16.8645 66.4909 16.8645C67.1316 16.8645 67.6455 16.6771 68.0323 16.3024C68.4313 15.9397 68.6307 15.3534 68.6307 14.5434V12.7663C68.3648 13.3707 67.9537 13.8482 67.3976 14.1988C66.8415 14.5494 66.1766 14.7247 65.4029 14.7247C64.5687 14.7247 63.8192 14.5192 63.1543 14.1082C62.5014 13.685 61.9816 13.0806 61.5948 12.2948C61.22 11.509 61.0326 10.5902 61.0326 9.53842C61.0326 8.47457 61.22 7.55578 61.5948 6.78207C61.9816 5.99627 62.5014 5.39785 63.1543 4.98682C63.8192 4.56369 64.5687 4.35213 65.4029 4.35213ZM66.4002 7.07221C65.7353 7.07221 65.1973 7.28982 64.7863 7.72503C64.3874 8.16025 64.1879 8.76471 64.1879 9.53842C64.1879 10.3121 64.3874 10.9166 64.7863 11.3518C65.1973 11.787 65.7353 12.0046 66.4002 12.0046C67.053 12.0046 67.585 11.781 67.996 11.3337C68.4192 10.8864 68.6307 10.288 68.6307 9.53842C68.6307 8.7768 68.4192 8.17838 67.996 7.74317C67.585 7.29586 67.053 7.07221 66.4002 7.07221ZM6.72765 28.851C8.3597 28.851 9.70769 29.2802 10.7715 30.1385C11.8475 30.9968 12.5426 32.1574 12.8569 33.6202H9.57472C9.33293 33.0278 8.95814 32.5624 8.45039 32.2239C7.95473 31.8854 7.36238 31.7162 6.67329 31.7162C5.7666 31.7162 5.03516 32.0486 4.47905 32.7135C3.92295 33.3784 3.64489 34.267 3.64489 35.3792C3.64489 36.4914 3.92295 37.38 4.47905 38.0449C5.03516 38.6977 5.7666 39.0241 6.67329 39.0241C7.36238 39.0241 7.95473 38.8549 8.45039 38.5164C8.95814 38.1779 9.33293 37.7185 9.57472 37.1382H12.8569C12.5426 38.5889 11.8475 39.7495 10.7715 40.6199C9.70769 41.4782 8.3597 41.9074 6.72765 41.9074C5.48246 41.9074 4.38838 41.6354 3.44542 41.0914C2.50246 40.5353 1.77108 39.7616 1.25124 38.7702C0.743494 37.7789 0.489638 36.6486 0.489638 35.3792C0.489638 34.1098 0.743494 32.9795 1.25124 31.9882C1.77108 30.9969 2.50246 30.2292 3.44542 29.6852C4.38838 29.1291 5.48246 28.851 6.72765 28.851ZM19.3277 31.553C20.3311 31.553 21.2257 31.7645 22.0115 32.1876C22.8094 32.5987 23.432 33.1971 23.8793 33.9829C24.3387 34.7687 24.5684 35.6875 24.5684 36.7392C24.5684 37.791 24.3387 38.7098 23.8793 39.4956C23.432 40.2814 22.8094 40.8859 22.0115 41.309C21.2257 41.72 20.3311 41.9255 19.3277 41.9255C18.3243 41.9255 17.4236 41.72 16.6257 41.309C15.8278 40.8859 15.1992 40.2814 14.7398 39.4956C14.2925 38.7098 14.0689 37.791 14.0689 36.7392C14.0689 35.6875 14.2925 34.7687 14.7398 33.9829C15.1992 33.1971 15.8278 32.5987 16.6257 32.1876C17.4236 31.7645 18.3243 31.553 19.3277 31.553ZM19.3277 34.2368C18.7353 34.2368 18.2336 34.4544 17.8226 34.8896C17.4236 35.3127 17.2242 35.9293 17.2242 36.7392C17.2242 37.5492 17.4236 38.1658 17.8226 38.5889C18.2336 39.012 18.7353 39.2236 19.3277 39.2236C19.9201 39.2236 20.4157 39.012 20.8147 38.5889C21.2136 38.1658 21.4131 37.5492 21.4131 36.7392C21.4131 35.9293 21.2136 35.3127 20.8147 34.8896C20.4157 34.4544 19.9201 34.2368 19.3277 34.2368ZM39.2871 31.5711C40.5323 31.5711 41.5115 31.9579 42.2248 32.7317C42.938 33.4933 43.2946 34.5571 43.2946 35.9232V41.7986H40.2119V36.2859C40.2119 35.6452 40.0366 35.1495 39.686 34.7989C39.3475 34.4362 38.8821 34.2549 38.2897 34.2549C37.6732 34.2549 37.1835 34.4483 36.8209 34.8352C36.4703 35.21 36.2949 35.7419 36.2949 36.431V41.7986H33.194V36.2859C33.194 35.6452 33.0248 35.1495 32.6863 34.7989C32.3478 34.4362 31.8824 34.2549 31.29 34.2549C30.6735 34.2549 30.1839 34.4423 29.8212 34.8171C29.4585 35.1918 29.2771 35.7298 29.2771 36.431V41.7986H26.1763V31.6799H29.2771V33.4026C29.5431 32.8344 29.9481 32.3871 30.4922 32.0607C31.0483 31.7343 31.695 31.5711 32.4324 31.5711C33.2062 31.5711 33.8892 31.7524 34.4816 32.1151C35.0739 32.4657 35.5213 32.9734 35.8235 33.6384C36.1741 33.0097 36.6516 32.508 37.2561 32.1332C37.8726 31.7585 38.5496 31.5711 39.2871 31.5711ZM51.6654 31.553C52.4996 31.553 53.2431 31.7645 53.8959 32.1876C54.5608 32.5987 55.0807 33.1971 55.4554 33.9829C55.8423 34.7566 56.0357 35.6754 56.0357 36.7392C56.0357 37.791 55.8423 38.7098 55.4554 39.4956C55.0807 40.2814 54.5608 40.8859 53.8959 41.309C53.2431 41.72 52.4996 41.9255 51.6654 41.9255C50.8917 41.9255 50.2268 41.7502 49.6707 41.3997C49.1146 41.0491 48.7096 40.5715 48.4558 39.9671V46.6222H45.3549V31.6799H48.4558V33.5114C48.7096 32.907 49.1146 32.4294 49.6707 32.0788C50.2268 31.7283 50.8917 31.553 51.6654 31.553ZM50.6681 34.273C50.0153 34.273 49.4773 34.4967 49.0542 34.944C48.6431 35.3792 48.4376 35.9776 48.4376 36.7392C48.4376 37.4888 48.6431 38.0872 49.0542 38.5345C49.4773 38.9818 50.0153 39.2055 50.6681 39.2055C51.333 39.2055 51.8649 38.9878 52.2639 38.5526C52.6749 38.1174 52.8804 37.513 52.8804 36.7392C52.8804 35.9655 52.6749 35.3611 52.2639 34.9259C51.8649 34.4906 51.333 34.273 50.6681 34.273ZM61.4889 31.553C62.2627 31.553 62.9276 31.7283 63.4837 32.0788C64.0398 32.4294 64.4509 32.907 64.7168 33.5114V31.6799H67.7996V41.7986H64.7168V39.9671C64.4509 40.5715 64.0398 41.0491 63.4837 41.3997C62.9276 41.7502 62.2627 41.9255 61.4889 41.9255C60.6548 41.9255 59.9053 41.72 59.2403 41.309C58.5875 40.8859 58.0677 40.2814 57.6809 39.4956C57.3061 38.7098 57.1187 37.791 57.1187 36.7392C57.1187 35.6754 57.3061 34.7566 57.6809 33.9829C58.0677 33.1971 58.5875 32.5987 59.2403 32.1876C59.9053 31.7645 60.6548 31.553 61.4889 31.553ZM62.4864 34.273C61.8215 34.273 61.2834 34.4906 60.8724 34.9259C60.4734 35.3611 60.274 35.9655 60.274 36.7392C60.274 37.513 60.4734 38.1174 60.8724 38.5526C61.2834 38.9878 61.8215 39.2055 62.4864 39.2055C63.1392 39.2055 63.6711 38.9818 64.0821 38.5345C64.5052 38.0872 64.7168 37.4888 64.7168 36.7392C64.7168 35.9776 64.5052 35.3792 64.0821 34.944C63.6711 34.4967 63.1392 34.273 62.4864 34.273ZM76.3547 31.5711C77.5153 31.5711 78.4341 31.9579 79.1111 32.7317C79.8001 33.5054 80.1447 34.5692 80.1447 35.9232V41.7986H77.0438V36.2859C77.0438 35.6089 76.8625 35.083 76.4998 34.7083C76.1492 34.3214 75.6777 34.128 75.0854 34.128C74.4567 34.128 73.955 34.3274 73.5802 34.7264C73.2175 35.1253 73.0362 35.6935 73.0362 36.431V41.7986H69.9353V31.6799H73.0362V33.5295C73.3264 32.9251 73.7556 32.4476 74.3238 32.097C74.904 31.7464 75.581 31.5711 76.3547 31.5711ZM81.8996 28.8329C81.8996 28.3614 82.0689 27.9745 82.4074 27.6723C82.7459 27.358 83.1932 27.2008 83.7493 27.2008C84.3054 27.2008 84.7527 27.358 85.0912 27.6723C85.4297 27.9745 85.599 28.3614 85.599 28.8329C85.599 29.2923 85.4297 29.6791 85.0912 29.9934C84.7527 30.2957 84.3054 30.4468 83.7493 30.4468C83.1932 30.4468 82.7459 30.2957 82.4074 29.9934C82.0689 29.6791 81.8996 29.2923 81.8996 28.8329ZM85.2907 31.6799V41.7986H82.1898V31.6799H85.2907ZM97.0425 36.4672C97.0425 36.7211 97.0123 36.9992 96.9518 37.3014H89.934C89.9703 38.063 90.1637 38.6131 90.5143 38.9516C90.8649 39.278 91.3121 39.4412 91.8561 39.4412C92.3155 39.4412 92.6964 39.3263 92.9986 39.0966C93.3009 38.867 93.5003 38.5708 93.597 38.2081H96.8793C96.7463 38.9214 96.4561 39.5621 96.0088 40.1303C95.5615 40.6864 94.9934 41.1276 94.3043 41.4541C93.6152 41.7684 92.8475 41.9255 92.0013 41.9255C91.0099 41.9255 90.1274 41.72 89.3537 41.309C88.5921 40.8859 87.9936 40.2814 87.5584 39.4956C87.1232 38.7098 86.9056 37.791 86.9056 36.7392C86.9056 35.6754 87.1172 34.7566 87.5403 33.9829C87.9755 33.1971 88.58 32.5987 89.3537 32.1876C90.1274 31.7645 91.0099 31.553 92.0013 31.553C93.0047 31.553 93.8872 31.7585 94.6488 32.1695C95.4104 32.5805 95.9967 33.1608 96.4078 33.9104C96.8309 34.6478 97.0425 35.5001 97.0425 36.4672ZM93.9053 35.9958C93.9174 35.3309 93.736 34.8352 93.3613 34.5088C92.9986 34.1703 92.5453 34.001 92.0013 34.001C91.4331 34.001 90.9616 34.1703 90.5868 34.5088C90.2121 34.8473 90.0005 35.3429 89.9521 35.9958H93.9053ZM102.34 31.553C103.621 31.553 104.643 31.8733 105.404 32.5141C106.178 33.1548 106.661 34.001 106.855 35.0528H103.953C103.869 34.6418 103.675 34.3214 103.373 34.0917C103.083 33.8499 102.714 33.729 102.267 33.729C101.916 33.729 101.651 33.8076 101.469 33.9648C101.288 34.1098 101.197 34.3214 101.197 34.5994C101.197 34.9138 101.36 35.1495 101.687 35.3067C102.025 35.4638 102.551 35.621 103.264 35.7781C104.038 35.9595 104.673 36.1469 105.168 36.3403C105.664 36.5216 106.093 36.8239 106.456 37.247C106.819 37.6701 107 38.2383 107 38.9516C107 39.5319 106.843 40.0457 106.529 40.493C106.214 40.9403 105.761 41.2908 105.168 41.5447C104.576 41.7986 103.875 41.9255 103.065 41.9255C101.699 41.9255 100.605 41.6233 99.7827 41.0188C98.9606 40.4144 98.4589 39.55 98.2776 38.4257H101.27C101.318 38.8609 101.499 39.1934 101.814 39.4231C102.14 39.6528 102.557 39.7676 103.065 39.7676C103.416 39.7676 103.681 39.689 103.863 39.5319C104.044 39.3626 104.135 39.145 104.135 38.879C104.135 38.5285 103.966 38.2806 103.627 38.1355C103.301 37.9784 102.763 37.8152 102.013 37.6459C101.264 37.4888 100.647 37.3195 100.164 37.1382C99.6799 36.9568 99.2629 36.6667 98.9123 36.2678C98.5617 35.8567 98.3864 35.3006 98.3864 34.5994C98.3864 33.6928 98.7309 32.9614 99.42 32.4052C100.109 31.8371 101.082 31.553 102.34 31.553Z" fill="#A6AEBE"/>
</svg>
