<svg width="148" height="32" viewBox="0 0 148 32" fill="none" xmlns="http://www.w3.org/2000/svg">
<mask id="mask0_1_15949" style="mask-type:luminance" maskUnits="userSpaceOnUse" x="0" y="-1" width="148" height="34">
<path d="M148 -0.163147H0V32.0416H148V-0.163147Z" fill="white"/>
</mask>
<g mask="url(#mask0_1_15949)">
<path fill-rule="evenodd" clip-rule="evenodd" d="M79.1251 22.4131C77.5159 24.0474 75.5926 24.8688 73.3624 24.8688C71.559 24.8688 70.0262 24.5007 68.4623 23.5908V19.8446C69.7203 20.6989 71.3013 21.5125 72.8602 21.5125C76.1129 21.5125 78.0492 19.271 78.0492 16.0946C78.0492 12.9156 76.0465 10.6075 72.7928 10.6075C71.3396 10.6075 70.1611 11.1307 69.2412 12.1792C68.2549 13.3152 67.7447 14.9388 67.7447 17.0854V31.8784H67.5002C65.7068 31.8784 64.2545 30.4239 64.2545 28.6291V16.5301C64.2545 11.396 67.3884 7.2505 72.7767 7.2505C75.4366 7.2505 77.5974 8.16149 79.2358 9.99153C80.7766 11.7012 81.5394 13.8676 81.5394 16.4746C81.5394 18.7945 80.7343 20.7777 79.1251 22.4131ZM116.916 22.2877C115.315 24.0101 113.253 24.8688 110.753 24.8688C108.114 24.8688 105.965 23.9578 104.328 22.1282C102.789 20.3974 102.025 18.2291 102.025 15.6458C102.025 11.0726 105.55 7.2505 110.19 7.2505C111.978 7.2505 113.532 7.62901 115.102 8.49079V12.2763C113.844 11.4215 112.263 10.6078 110.704 10.6078C107.451 10.6078 105.515 12.849 105.515 16.0265C105.515 19.1608 107.564 21.5129 110.77 21.5129C112.223 21.5129 113.418 20.9679 114.375 19.8701C115.326 18.7797 115.819 17.1772 115.819 15.0246V3.24936C115.819 1.45415 117.274 0 119.065 0H119.311V15.5766C119.311 18.3198 118.518 20.5654 116.916 22.2877ZM126.774 5.58813C126.408 5.99884 125.882 6.18784 125.242 6.18784C124.043 6.18784 123.186 5.30322 123.186 4.11255C123.186 2.8941 124.028 2.07167 125.241 2.07167C126.41 2.07167 127.297 2.93889 127.297 4.11255C127.297 4.69344 127.127 5.19111 126.774 5.58813ZM144.509 15.0242C144.509 13.6464 143.989 12.5555 142.943 11.7294C142 10.9856 140.823 10.6075 139.391 10.6075C136.232 10.6075 134.204 13.0803 134.204 16.1294C134.204 19.0635 136.354 21.5125 139.358 21.5125C141.448 21.5125 142.565 20.2904 143.757 18.7678V23.1575C143.15 23.613 142.452 24.1096 141.739 24.4011C140.986 24.7156 140.089 24.8688 139.051 24.8688C134.027 24.8688 130.714 20.7026 130.714 15.8878C130.714 13.4155 131.481 11.3716 133.025 9.77767C134.663 8.08853 136.813 7.2505 139.444 7.2505C144.431 7.2505 148 10.1184 148 15.3002V24.5236H147.755C145.962 24.5236 144.509 23.0688 144.509 21.2735V15.0242ZM96.727 14.0341C96.2862 12.6684 95.7327 11.9962 94.4616 11.285C91.4364 9.59299 88.4594 11.0334 87.0746 14.0212L96.727 14.0341ZM94.063 24.8174C91.8339 25.2917 89.646 24.9258 87.5124 23.7314C85.4302 22.5674 84.0353 20.8362 83.3369 18.5484C81.9239 13.9216 84.8183 8.76563 89.4739 7.5173C91.7815 6.89866 93.9936 7.17874 96.096 8.35462C99.5872 10.3089 100.859 13.3315 100.637 17.2261L86.5754 17.1979C86.7817 18.7863 87.766 20.0291 89.1488 20.8022C90.5497 21.5866 91.8379 21.7737 93.0335 21.4027C94.362 20.9852 95.4388 19.9004 96.3143 18.8903L99.1806 20.9812C98.0112 23.0754 96.42 24.3149 94.063 24.8174ZM123.496 7.5965H126.986V24.5232H126.741C124.949 24.5232 123.496 23.0684 123.496 21.2732V7.5965ZM5.10847 24.5232C1.69476 24.5232 0 22.1985 0 18.951V6.63378C0 4.83927 1.45322 3.38402 3.24663 3.38402H3.49119V7.5968H9.38867V10.9534H3.49119V19.3407C3.49119 20.7669 4.12724 21.1673 5.4879 21.1673H9.38867V24.5239L5.10847 24.5232ZM25.3794 22.3835C23.6554 24.0388 21.5832 24.8684 19.1749 24.8684C16.7897 24.8684 14.7286 24.0381 13.0047 22.3835C11.2747 20.7222 10.4122 18.6076 10.4122 16.0598C10.4122 11.0885 14.2023 7.2509 19.1749 7.2509C21.5611 7.2509 23.6282 8.08712 25.3622 9.75392C27.1033 11.4256 27.9739 13.5339 27.9739 16.0598C27.9739 18.6076 27.1094 20.7219 25.3794 22.3835ZM41.6992 11.6694C41.1869 12.5293 40.7903 13.1457 40.5106 13.5184C40.2026 13.9234 39.8987 14.2472 39.5978 14.4707C42.0232 15.2551 42.9269 16.9379 42.9269 19.4446V24.5232H42.6824C40.889 24.5232 39.4357 23.0684 39.4357 21.2732V19.789C39.4357 18.1659 38.7091 17.0648 36.9912 17.0648H33.822V24.5232H33.5765C31.7841 24.5232 30.3318 23.0684 30.3318 21.2732V3.24936C30.3318 1.45415 31.7841 0 33.5765 0H33.822V13.674H34.8536C35.9868 13.674 36.7315 13.2856 37.1592 12.5511L40.0909 7.5972L44.0692 7.59348L41.6992 11.6694ZM59.7177 22.3839C57.9927 24.0392 55.9195 24.8688 53.5122 24.8688C51.1271 24.8688 49.0659 24.0385 47.341 22.3839C45.611 20.7226 44.7485 18.608 44.7485 16.0602C44.7485 11.0889 48.5406 7.25131 53.5122 7.25131C55.8984 7.25131 57.9645 8.08742 59.7006 9.75432C61.4416 11.4259 62.3102 13.5343 62.3102 16.0602C62.3102 18.608 61.4477 20.7222 59.7177 22.3839ZM57.1977 12.1209C56.2355 11.1134 55.0138 10.6075 53.5122 10.6075C50.2998 10.6075 48.3766 12.9523 48.3766 16.0602C48.3766 19.1249 50.3461 21.5125 53.5122 21.5125C56.6794 21.5125 58.6479 19.1249 58.6479 16.0602C58.6479 14.433 58.1588 13.1273 57.1977 12.1209ZM22.8603 12.1209C21.8992 11.1134 20.6775 10.6075 19.1759 10.6075C15.9635 10.6075 14.0403 12.9523 14.0403 16.0602C14.0403 19.1249 16.0088 21.5125 19.1749 21.5125C22.342 21.5125 24.3095 19.1249 24.3095 16.0602C24.3095 14.433 23.8224 13.1273 22.8603 12.1209Z" fill="#A6AEBE"/>
</g>
</svg>
