<svg width="20" height="24" viewBox="0 0 20 24" fill="none" xmlns="http://www.w3.org/2000/svg">
<g clip-path="url(#clip0_1_16536)">
<g clip-path="url(#clip1_1_16536)">
<mask id="mask0_1_16536" style="mask-type:luminance" maskUnits="userSpaceOnUse" x="3" y="2" width="14" height="20">
<path d="M16.6671 2.00132H3.3329V21.9987H16.6671V2.00132Z" fill="white"/>
</mask>
<g mask="url(#mask0_1_16536)">
<path d="M6.66796 21.9983C8.50772 21.9983 10.0009 20.5052 10.0009 18.6655V15.3326H6.66796C4.82821 15.3326 3.33507 16.8257 3.33507 18.6655C3.33507 20.5052 4.82821 21.9983 6.66796 21.9983Z" fill="#0ACF83"/>
<path d="M3.33507 12.0003C3.33507 10.1606 4.82821 8.66744 6.66796 8.66744H10.0009V15.3332H6.66796C4.82821 15.3332 3.33507 13.8401 3.33507 12.0003Z" fill="#A259FF"/>
<path d="M3.33507 5.33422C3.33507 3.49446 4.82821 2.00132 6.66796 2.00132H10.0009V8.66711H6.66796C4.82821 8.66711 3.33507 7.17397 3.33507 5.33422Z" fill="#F24E1E"/>
<path d="M10.0008 2.00132H13.3337C15.1735 2.00132 16.6666 3.49446 16.6666 5.33422C16.6666 7.17397 15.1735 8.66711 13.3337 8.66711H10.0008V2.00132Z" fill="#FF7262"/>
<path d="M16.6666 12.0003C16.6666 13.8401 15.1735 15.3332 13.3337 15.3332C11.494 15.3332 10.0008 13.8401 10.0008 12.0003C10.0008 10.1606 11.494 8.66744 13.3337 8.66744C15.1735 8.66744 16.6666 10.1606 16.6666 12.0003Z" fill="#1ABCFE"/>
</g>
</g>
</g>
<defs>
<clipPath id="clip0_1_16536">
<rect width="19.6719" height="23.6094" fill="white" transform="scale(1.01655)"/>
</clipPath>
<clipPath id="clip1_1_16536">
<rect width="19.6719" height="19.6719" fill="white" transform="translate(0 2.00132) scale(1.01655)"/>
</clipPath>
</defs>
</svg>
