<svg width="137" height="32" viewBox="0 0 137 32" fill="none" xmlns="http://www.w3.org/2000/svg">
<mask id="mask0_1_15928" style="mask-type:luminance" maskUnits="userSpaceOnUse" x="0" y="-1" width="137" height="34">
<path d="M136.112 -0.00683886H0V32.0068H136.112V-0.00683886Z" fill="white"/>
</mask>
<g mask="url(#mask0_1_15928)">
<path d="M10.0121 16.0038C10.0121 12.6996 12.7008 10.0199 16.02 10.0199C19.338 10.0199 22.0278 12.6984 22.0278 16.0038C22.0278 19.3104 19.3392 21.9888 16.0212 21.9888C12.7019 21.9888 10.0121 19.3092 10.0121 16.005" fill="#A6AEBE"/>
<path d="M16.0179 0.0482193C7.17146 0.0482193 0 7.19227 0 16.0055C0 22.621 4.01021 28.2685 9.83273 30.726C10.2422 30.8981 10.6847 30.9772 11.1285 30.9575C11.5721 30.9378 12.0059 30.82 12.3985 30.6123C12.7912 30.4047 13.1328 30.1125 13.3987 29.7568C13.6647 29.4012 13.8485 28.9909 13.9368 28.5556C14.0728 27.8771 13.9693 27.1724 13.6438 26.5616C13.3183 25.951 12.7911 25.4721 12.1519 25.2068V25.2056C8.54329 23.6987 6.00674 20.1485 6.00674 16.0055C6.00674 10.4965 10.4883 6.03098 16.0191 6.03098C21.5499 6.03098 26.0326 10.4965 26.0326 16.0055C26.0326 20.1473 23.496 23.6987 19.8863 25.2045V25.2068C19.247 25.4723 18.7198 25.9515 18.3945 26.5625C18.0691 27.1735 17.966 27.8785 18.1024 28.5571C18.2389 29.2358 18.6068 29.846 19.143 30.2836C19.6792 30.7213 20.3508 30.9594 21.043 30.9571C21.4411 30.9547 21.8349 30.8759 22.2032 30.7249C28.0257 28.2673 32.0371 22.6187 32.0371 16.0044C32.0371 7.18997 24.8644 0.0459181 16.0179 0.0459181" fill="#A6AEBE"/>
<path d="M78.5146 14.2343C78.5146 11.3476 76.5272 9.20123 73.4289 9.20123C70.3283 9.20123 68.342 11.3487 68.342 14.2354C68.342 17.1198 70.3294 19.2696 73.4289 19.2696C76.5272 19.2696 78.5146 17.1209 78.5146 14.2354M63.3559 14.2354C63.3559 8.93352 67.5663 4.83857 73.4289 4.83857C79.3234 4.83857 83.5007 8.93352 83.5007 14.2354C83.5007 19.5373 79.3234 23.6311 73.4289 23.6311C67.5674 23.6311 63.3559 19.5373 63.3559 14.2354ZM81.789 27.4708H84.4835C85.932 27.4708 86.4377 26.9331 86.4377 25.6585V4.84437H91.4227V25.7249C91.4227 30.1218 89.6379 32.0005 84.8886 32.0005H81.7879V27.4696L81.789 27.4708ZM55.3641 15.2057C55.3641 17.4024 53.1261 19.1575 50.2783 19.1575C47.0587 19.1575 45.0576 17.2663 45.0576 14.1255C45.0576 11.2218 47.1937 9.22864 50.482 9.22864C53.0929 9.22864 55.3641 11.0524 55.3641 13.1119V15.2057ZM55.5676 4.83286V6.93126H55.499C54.2108 5.58119 52.0758 4.83747 49.5335 4.83747C44.0748 4.83747 40.0405 8.89 40.0405 14.1244C40.0405 19.5626 44.1766 23.5476 49.7028 23.5476C52.1764 23.5476 54.2451 22.7695 55.5001 21.3851H55.5689V23.1952C55.5689 25.6265 53.4659 27.4159 50.6857 27.4159C47.8825 27.4159 46.251 26.6288 44.8345 25.2798L41.5886 28.3918C43.7636 30.6916 47.0427 31.9994 50.7875 31.9994C56.4841 31.9994 60.3811 28.1927 60.3811 23.1277V4.83286H55.5676ZM104.163 8.86479C106.823 8.86479 108.676 10.2413 108.912 12.3225H99.3448C99.6148 10.2413 101.468 8.86479 104.163 8.86479ZM104.678 19.6037C101.689 19.6037 99.3401 17.6793 99.2784 15.8121H113.764V14.4037C113.764 9.06738 110.057 4.83857 104.06 4.83857C98.4019 4.83857 94.3597 8.79966 94.3597 14.2697C94.3597 19.9069 98.6239 23.6311 104.892 23.6311C108.731 23.6311 111.486 21.797 112.922 20.0408L109.544 17.6816C108.041 19.0786 106.677 19.6037 104.678 19.6037ZM116.7 0H121.513L121.539 12.3225H121.604L129.661 4.79625H136.112L127.762 12.6691L136.078 23.6162H130.319L124.607 15.7045H124.542L121.513 18.5637V23.63H116.7V0Z" fill="#A6AEBE"/>
</g>
</svg>
