<svg width="48" height="49" viewBox="0 0 48 49" fill="none" xmlns="http://www.w3.org/2000/svg">
<rect width="48" height="48.5938" rx="24" fill="#E5E9F2"/>
<g clip-path="url(#clip0_1_15909)">
<path fill-rule="evenodd" clip-rule="evenodd" d="M22 16.5938C18.6863 16.5938 16 19.28 16 22.5938C16 25.9074 18.6863 28.5938 22 28.5938C25.3137 28.5938 28 25.9074 28 22.5938C28 19.28 25.3137 16.5938 22 16.5938ZM14 22.5938C14 18.1755 17.5817 14.5938 22 14.5938C26.4183 14.5938 30 18.1755 30 22.5938C30 27.0121 26.4183 30.5938 22 30.5938C17.5817 30.5938 14 27.0121 14 22.5938Z" fill="#34364A"/>
<path fill-rule="evenodd" clip-rule="evenodd" d="M26.2929 26.8866C26.6834 26.4961 27.3166 26.4961 27.7071 26.8866L33.7071 32.8866C34.0976 33.2771 34.0976 33.9103 33.7071 34.3008C33.3166 34.6913 32.6834 34.6913 32.2929 34.3008L26.2929 28.3008C25.9024 27.9103 25.9024 27.2771 26.2929 26.8866Z" fill="#34364A"/>
</g>
<defs>
<clipPath id="clip0_1_15909">
<rect width="24" height="24" fill="white" transform="translate(12 12.5938)"/>
</clipPath>
</defs>
</svg>
