<svg width="110" height="32" viewBox="0 0 110 32" fill="none" xmlns="http://www.w3.org/2000/svg">
<mask id="mask0_1_15935" style="mask-type:luminance" maskUnits="userSpaceOnUse" x="-1" y="0" width="111" height="32">
<path d="M109.875 0H-0.0150146V32H109.875V0Z" fill="white"/>
</mask>
<g mask="url(#mask0_1_15935)">
<path d="M0.113998 21.99C0.113998 20.4005 0.086 19.0699 0 17.8794H3.006L3.14899 19.922H3.23199C3.91299 18.8439 5.15999 17.5663 7.48599 17.5663C9.30099 17.5663 10.717 18.5889 11.313 20.119H11.371C11.854 19.3539 12.419 18.7858 13.071 18.3907C13.837 17.8503 14.718 17.5663 15.851 17.5663C18.148 17.5663 20.471 19.1254 20.471 23.5517V31.6871H17.069V24.0592C17.069 21.764 16.275 20.4005 14.602 20.4005C13.412 20.4005 12.532 21.254 12.164 22.2463C12.062 22.625 12.005 23.0144 11.994 23.4065V31.6883H8.59099V23.6893C8.59099 21.7653 7.826 20.4018 6.209 20.4018C4.908 20.4018 4.029 21.4244 3.713 22.3864C3.573 22.7273 3.515 23.1262 3.515 23.5201V31.6883H0.113998V21.99ZM33.729 28.3718C33.729 29.6179 33.785 30.8362 33.926 31.6883H30.778L30.552 30.1582H30.466C29.615 31.2364 28.169 31.9989 26.386 31.9989C23.606 31.9989 22.047 29.9878 22.047 27.8883C22.047 24.3975 25.135 22.6427 30.242 22.6705V22.4445C30.242 21.5355 29.872 20.0331 27.433 20.0331C26.07 20.0331 24.654 20.4599 23.718 21.0532L23.038 18.7846C24.059 18.1596 25.846 17.565 28.027 17.565C32.452 17.565 33.73 20.3753 33.73 23.3774L33.729 28.3718ZM30.325 24.9417C27.857 24.8836 25.505 25.4227 25.505 27.5209C25.505 28.8818 26.386 29.5068 27.491 29.5068C28.878 29.5068 29.901 28.5965 30.213 27.6055C30.289 27.3577 30.327 27.0997 30.326 26.8404L30.325 24.9417ZM36.137 21.99C36.137 20.4005 36.108 19.0699 36.026 17.8794H39.085L39.255 19.9523H39.34C39.935 18.8729 41.439 17.5663 43.735 17.5663C46.146 17.5663 48.64 19.1254 48.64 23.4949V31.6871H45.153V23.8913C45.153 21.9067 44.414 20.3993 42.515 20.3993C41.128 20.3993 40.161 21.3928 39.794 22.4432C39.68 22.7538 39.652 23.1805 39.652 23.5744V31.6858H36.136L36.137 21.99ZM63.762 12.332V27.8037C63.762 29.2214 63.82 30.7554 63.875 31.6883H60.758L60.616 29.5068H60.558C59.737 31.0369 58.062 32.0002 56.05 32.0002C52.76 32.0002 50.153 29.1937 50.153 24.9429C50.123 20.3197 53.014 17.5675 56.335 17.5675C58.233 17.5675 59.594 18.3616 60.218 19.3868H60.277V12.3333H63.763L63.762 12.332ZM60.276 23.635C60.276 23.3535 60.248 23.0126 60.19 22.7273C59.878 21.3688 58.775 20.2616 57.185 20.2616C54.946 20.2616 53.696 22.2475 53.696 24.8268C53.696 27.3479 54.945 29.1924 57.158 29.1924C58.573 29.1924 59.822 28.2266 60.161 26.7243C60.247 26.4137 60.277 26.0716 60.277 25.7042V23.635H60.276ZM66.229 31.6883V17.8794H69.747V31.6883H66.229ZM72.211 22.3321C72.211 20.4611 72.185 19.1267 72.1 17.8806H75.134L75.245 20.5154H75.36C76.041 18.5598 77.655 17.8806 79.134 17.8806C79.473 17.8806 79.67 17.8225 79.953 17.8806V20.9446C79.618 20.8706 79.277 20.8325 78.934 20.831C77.258 20.831 76.124 21.9092 75.813 23.4658C75.745 23.8221 75.707 24.1837 75.701 24.5465V31.6896H72.211V22.3321ZM81.571 31.6883V17.8794H85.085V31.6883H81.571Z" fill="#A6AEBE"/>
<path d="M106.972 3.27483C105.231 1.28903 103.38 2.18783 101.91 2.91883C101.291 3.22433 96.826 5.75563 96.826 5.75563C94.379 6.76433 92.474 5.66343 91.727 4.73683C91.655 4.64893 91.59 4.55563 91.533 4.45783L91.359 4.15603C91.065 3.64683 90.737 3.15713 90.379 2.69033C90.162 2.40733 89.927 2.13873 89.675 1.88613C88.001 0.195627 85.326 -0.987273 80.854 1.16143C78.737 2.38863 71.84 6.32883 71.84 6.32883C69.248 7.39563 67.266 6.09653 66.622 5.14333C66.593 5.10763 66.568 5.06913 66.546 5.02843L66.462 4.88453L66.025 4.16993C65.828 3.85693 65.616 3.55323 65.391 3.25973C65.172 2.97853 64.936 2.71043 64.686 2.45673C63.023 0.776427 60.362 -0.403973 55.929 1.70433C53.249 3.23443 47.015 6.79843 47.015 6.79843L47.012 6.80093L42.45 9.40793L44.81 12.3066C45.804 13.2534 47.671 14.8063 50.56 13.4971C50.56 13.4971 58.532 8.88023 58.564 8.86633C65.38 5.12563 68.743 8.69973 70.23 11.082C70.282 11.1565 70.324 11.2373 70.37 11.3092L70.373 11.313C70.392 11.3421 70.403 11.3686 70.42 11.3963L70.588 11.6716C71.312 12.7699 72.455 13.4794 73.817 13.4466C74.568 13.4315 75.078 13.1865 75.821 12.7737L83.534 8.29953L83.551 8.29193C90.453 4.50573 93.873 8.31343 95.333 10.6957C95.447 10.9015 95.576 11.0984 95.708 11.2815C96.432 12.2624 97.429 12.905 98.697 12.8734C99.534 12.857 100.472 12.3546 100.612 12.2624L109.859 6.92463C109.862 6.92723 108.918 5.49933 106.972 3.27483Z" fill="#A6AEBE"/>
</g>
</svg>
