<svg width="120" height="120" viewBox="0 0 120 120" fill="none" xmlns="http://www.w3.org/2000/svg">
<mask id="mask0_1_16159" style="mask-type:alpha" maskUnits="userSpaceOnUse" x="0" y="0" width="120" height="120">
<path d="M120 60C120 93.137 93.137 120 60 120C26.863 120 0 93.137 0 60C0 26.863 26.863 0 60 0C93.137 0 120 26.863 120 60Z" fill="#E8EFFF"/>
</mask>
<g mask="url(#mask0_1_16159)">
<path d="M120 60C120 93.137 93.137 120 60 120C26.863 120 0 93.137 0 60C0 26.863 26.863 0 60 0C93.137 0 120 26.863 120 60Z" fill="#E8EFFF"/>
<path d="M24.8493 64.8837C28.701 64.8837 31.8234 61.7613 31.8234 57.9096C31.8234 54.058 28.701 50.9355 24.8493 50.9355C20.9976 50.9355 17.8752 54.058 17.8752 57.9096C17.8752 61.7613 20.9976 64.8837 24.8493 64.8837Z" fill="#B7C8EC"/>
<path d="M24.8493 107.801C35.8118 107.801 44.6986 98.9143 44.6986 87.9519C44.6986 76.9894 35.8118 68.1025 24.8493 68.1025C13.8868 68.1025 5 76.9894 5 87.9519C5 98.9143 13.8868 107.801 24.8493 107.801Z" fill="#B7C8EC"/>
<path d="M92.6507 64.8837C96.5024 64.8837 99.6249 61.7613 99.6249 57.9096C99.6249 54.058 96.5024 50.9355 92.6507 50.9355C88.7991 50.9355 85.6767 54.058 85.6767 57.9096C85.6767 61.7613 88.7991 64.8837 92.6507 64.8837Z" fill="#B7C8EC"/>
<path d="M92.6507 107.801C103.613 107.801 112.5 98.9143 112.5 87.9519C112.5 76.9894 103.613 68.1025 92.6507 68.1025C81.6883 68.1025 72.8014 76.9894 72.8014 87.9519C72.8014 98.9143 81.6883 107.801 92.6507 107.801Z" fill="#B7C8EC"/>
<path d="M58.585 158.106C83.3474 158.106 103.421 138.032 103.421 113.269C103.421 88.507 83.3474 68.4331 58.585 68.4331C33.8226 68.4331 13.7487 88.507 13.7487 113.269C13.7487 138.032 33.8226 158.106 58.585 158.106Z" fill="#E8EFFF"/>
<path d="M58.585 68.4328C66.4365 68.4328 72.8014 62.0679 72.8014 54.2164C72.8014 46.3649 66.4365 40 58.585 40C50.7335 40 44.3686 46.3649 44.3686 54.2164C44.3686 62.0679 50.7335 68.4328 58.585 68.4328Z" fill="#F4A42B"/>
<path d="M58.585 155.918C80.9315 155.918 99.047 137.803 99.047 115.456C99.047 93.1096 80.9315 74.9941 58.585 74.9941C36.2385 74.9941 18.123 93.1096 18.123 115.456C18.123 137.803 36.2385 155.918 58.585 155.918Z" fill="#F4A42B"/>
<path d="M58.8113 83.6585C59.1853 82.507 60.8148 82.507 61.1888 83.6585L63.6483 91.2283C63.8158 91.7433 64.2958 92.092 64.8373 92.092H72.7965C74.0073 92.092 74.5108 93.6415 73.531 94.3533L67.092 99.0315C66.6538 99.3498 66.4705 99.914 66.638 100.429L69.0975 107.999C69.4715 109.15 68.1535 110.108 67.1738 109.396L60.7348 104.718C60.2965 104.4 59.7035 104.4 59.2653 104.718L52.8263 109.396C51.8465 110.108 50.5285 109.15 50.9025 107.999L53.362 100.429C53.5295 99.914 53.3463 99.3498 52.908 99.0315L46.469 94.3533C45.4893 93.6415 45.9928 92.092 47.2035 92.092H55.1628C55.7043 92.092 56.1843 91.7433 56.3518 91.2283L58.8113 83.6585Z" fill="white"/>
</g>
</svg>
