<svg width="24" height="24" viewBox="0 0 24 24" fill="none" xmlns="http://www.w3.org/2000/svg">
<path d="M6.41 9H17.59C17.7878 9.00083 17.9809 9.06028 18.1448 9.17085C18.3088 9.28141 18.4363 9.43812 18.5113 9.62115C18.5862 9.80418 18.6052 10.0053 18.5658 10.1991C18.5264 10.3929 18.4304 10.5707 18.29 10.71L12.71 16.29C12.617 16.3837 12.5064 16.4581 12.3846 16.5089C12.2627 16.5597 12.132 16.5858 12 16.5858C11.868 16.5858 11.7373 16.5597 11.6154 16.5089C11.4936 16.4581 11.383 16.3837 11.29 16.29L5.71 10.71C5.56958 10.5707 5.47361 10.3929 5.43422 10.1991C5.39484 10.0053 5.41381 9.80418 5.48873 9.62115C5.56366 9.43812 5.69117 9.28141 5.85516 9.17085C6.01914 9.06028 6.21223 9.00083 6.41 9Z" fill="black"/>
</svg>
