<svg width="174" height="174" viewBox="0 0 174 174" fill="none" xmlns="http://www.w3.org/2000/svg">
<g clip-path="url(#clip0_1_16247)">
<g clip-path="url(#clip1_1_16247)">
<mask id="mask0_1_16247" style="mask-type:luminance" maskUnits="userSpaceOnUse" x="0" y="0" width="174" height="174">
<path d="M174 0H0V174H174V0Z" fill="white"/>
</mask>
<g mask="url(#mask0_1_16247)">
<path d="M174 0H0V174H174V0Z" fill="#F96073"/>
<g filter="url(#filter0_d_1_16247)">
<path d="M137.367 26.6348H36.6338C31.111 26.6348 26.6338 31.1119 26.6338 36.6348V137.366C26.6338 142.889 31.111 147.366 36.6338 147.366H137.367C142.89 147.366 147.367 142.889 147.367 137.366V36.6348C147.367 31.1119 142.89 26.6348 137.367 26.6348Z" fill="#FF0000" fill-opacity="0.01"/>
</g>
<path d="M140.415 23.5859H33.585C28.0621 23.5859 23.585 28.0631 23.585 33.5859V140.413C23.585 145.936 28.0621 150.413 33.585 150.413H140.415C145.938 150.413 150.415 145.936 150.415 140.413V33.5859C150.415 28.0631 145.938 23.5859 140.415 23.5859Z" fill="white"/>
<path opacity="0.1" d="M133.225 74.6787H86.1338C82.8201 74.6787 80.1338 77.365 80.1338 80.6787V127.77C80.1338 131.083 82.8201 133.77 86.1338 133.77H133.225C136.538 133.77 139.225 131.083 139.225 127.77V80.6787C139.225 77.365 136.538 74.6787 133.225 74.6787Z" fill="#F96073"/>
<g filter="url(#filter1_d_1_16247)">
<path d="M92.8752 117.815L102.306 90.396C103.347 87.3048 106.276 85.1143 109.752 85.1143C113.18 85.1143 116.105 87.3048 117.15 90.396L126.481 117.513C126.629 118.012 126.73 118.514 126.73 119.013C126.73 121.501 124.697 123.547 122.213 123.547C120.176 123.547 119.371 122.2 118.777 120.408L116.901 114.802H102.097L100.353 120.504C99.8106 122.301 98.9309 123.547 96.9458 123.547C94.5629 123.547 92.626 121.601 92.626 119.21C92.626 118.711 92.7265 118.261 92.8752 117.815ZM114.558 108.159L112.115 100.027C111.363 97.6086 110.787 95.1014 110.245 92.9328L108.992 93.1332C108.454 95.2975 107.704 97.6086 106.952 100.027L104.6 107.807L114.558 108.159Z" fill="#FFC530"/>
</g>
<path d="M92.114 118.32L101.973 89.657C103.061 86.4256 106.123 84.1357 109.757 84.1357C113.34 84.1357 116.398 86.4256 117.49 89.657L127.244 118.004C127.399 118.525 127.504 119.051 127.504 119.572C127.504 122.173 125.379 124.312 122.783 124.312C120.653 124.312 118.889 122.904 118.267 121.03L116.306 115.171H102.549L100.725 121.131C100.158 123.009 98.4443 124.312 96.3693 124.312C93.8783 124.312 91.8535 122.278 91.8535 119.778C91.8535 119.257 91.9586 118.786 92.114 118.32ZM114.117 107.858L111.626 99.8723C110.84 97.3448 110.374 95.5211 109.807 93.2541H109.185C108.623 95.5165 108.157 97.3448 107.371 99.8723L104.88 107.858H114.117Z" fill="#F96073"/>
<g filter="url(#filter2_d_1_16247)">
<path d="M44.8317 59.6272C49.9903 59.6272 54.1721 55.4453 54.1721 50.2867C54.1721 45.1282 49.9903 40.9463 44.8317 40.9463C39.6731 40.9463 35.4912 45.1282 35.4912 50.2867C35.4912 55.4453 39.6731 59.6272 44.8317 59.6272Z" fill="#FF0000" fill-opacity="0.01"/>
</g>
<path d="M44.8314 60.3425C50.3852 60.3425 54.8874 55.8402 54.8874 50.2865C54.8874 44.7327 50.3852 40.2305 44.8314 40.2305C39.2776 40.2305 34.7754 44.7327 34.7754 50.2865C34.7754 55.8402 39.2776 60.3425 44.8314 60.3425Z" fill="#F96073"/>
<g filter="url(#filter3_d_1_16247)">
<path d="M72.944 59.6272C78.1026 59.6272 82.2844 55.4453 82.2844 50.2867C82.2844 45.1282 78.1026 40.9463 72.944 40.9463C67.7854 40.9463 63.6035 45.1282 63.6035 50.2867C63.6035 55.4453 67.7854 59.6272 72.944 59.6272Z" fill="#F8716A"/>
</g>
<path d="M72.9437 60.3425C78.4975 60.3425 82.9997 55.8402 82.9997 50.2865C82.9997 44.7327 78.4975 40.2305 72.9437 40.2305C67.3899 40.2305 62.8877 44.7327 62.8877 50.2865C62.8877 55.8402 67.3899 60.3425 72.9437 60.3425Z" fill="#F8716A"/>
<g filter="url(#filter4_d_1_16247)">
<path d="M101.056 59.4841C106.136 59.4841 110.254 55.3662 110.254 50.2865C110.254 45.2068 106.136 41.0889 101.056 41.0889C95.9763 41.0889 91.8584 45.2068 91.8584 50.2865C91.8584 55.3662 95.9763 59.4841 101.056 59.4841Z" fill="#FF0000" fill-opacity="0.01"/>
</g>
<path d="M101.056 60.3425C106.61 60.3425 111.112 55.8402 111.112 50.2865C111.112 44.7327 106.61 40.2305 101.056 40.2305C95.5022 40.2305 91 44.7327 91 50.2865C91 55.8402 95.5022 60.3425 101.056 60.3425Z" fill="#F78060"/>
<g filter="url(#filter5_d_1_16247)">
<path d="M129.169 59.6271C134.328 59.6271 138.509 55.4453 138.509 50.2867C138.509 45.1281 134.328 40.9463 129.169 40.9463C124.01 40.9463 119.829 45.1281 119.829 50.2867C119.829 55.4453 124.01 59.6271 129.169 59.6271Z" fill="#FF0000" fill-opacity="0.01"/>
</g>
<path d="M129.168 60.3425C134.722 60.3425 139.224 55.8402 139.224 50.2865C139.224 44.7327 134.722 40.2305 129.168 40.2305C123.614 40.2305 119.112 44.7327 119.112 50.2865C119.112 55.8402 123.614 60.3425 129.168 60.3425Z" fill="#F69B59"/>
<path opacity="0.6" d="M70.8043 74.6787H38.1182C36.4613 74.6787 35.1182 76.0219 35.1182 77.6787C35.1182 79.3356 36.4613 80.6787 38.1182 80.6787H70.8043C72.4611 80.6787 73.8043 79.3356 73.8043 77.6787C73.8043 76.0219 72.4611 74.6787 70.8043 74.6787Z" fill="#DCDCDC"/>
<path opacity="0.6" d="M70.8043 93.4561H38.1182C36.4613 93.4561 35.1182 94.7992 35.1182 96.4561C35.1182 98.1129 36.4613 99.4561 38.1182 99.4561H70.8043C72.4611 99.4561 73.8043 98.1129 73.8043 96.4561C73.8043 94.7992 72.4611 93.4561 70.8043 93.4561Z" fill="#DCDCDC"/>
<path opacity="0.6" d="M58.1958 84.0674H37.7754C36.1185 84.0674 34.7754 85.4105 34.7754 87.0674C34.7754 88.7242 36.1185 90.0674 37.7754 90.0674H58.1958C59.8526 90.0674 61.1958 88.7242 61.1958 87.0674C61.1958 85.4105 59.8526 84.0674 58.1958 84.0674Z" fill="#DCDCDC"/>
<g filter="url(#filter6_d_1_16247)">
<path d="M68.1274 104.797H40.6748C37.9134 104.797 35.6748 107.035 35.6748 109.797V128.054C35.6748 130.815 37.9134 133.054 40.6748 133.054H68.1274C70.8888 133.054 73.1274 130.815 73.1274 128.054V109.797C73.1274 107.035 70.8888 104.797 68.1274 104.797Z" fill="#FF0000" fill-opacity="0.01"/>
</g>
<path d="M68.8046 104.081H39.998C37.2366 104.081 34.998 106.32 34.998 109.081V128.769C34.998 131.531 37.2366 133.769 39.998 133.769H68.8046C71.566 133.769 73.8046 131.531 73.8046 128.769V109.081C73.8046 106.32 71.566 104.081 68.8046 104.081Z" fill="#F69B59"/>
</g>
</g>
</g>
<defs>
<filter id="filter0_d_1_16247" x="12.6338" y="22.6348" width="148.733" height="148.731" filterUnits="userSpaceOnUse" color-interpolation-filters="sRGB">
<feFlood flood-opacity="0" result="BackgroundImageFix"/>
<feColorMatrix in="SourceAlpha" type="matrix" values="0 0 0 0 0 0 0 0 0 0 0 0 0 0 0 0 0 0 127 0" result="hardAlpha"/>
<feOffset dy="10"/>
<feGaussianBlur stdDeviation="7"/>
<feComposite in2="hardAlpha" operator="out"/>
<feColorMatrix type="matrix" values="0 0 0 0 0 0 0 0 0 0 0 0 0 0 0 0 0 0 0.14 0"/>
<feBlend mode="normal" in2="BackgroundImageFix" result="effect1_dropShadow_1_16247"/>
<feBlend mode="normal" in="SourceGraphic" in2="effect1_dropShadow_1_16247" result="shape"/>
</filter>
<filter id="filter1_d_1_16247" x="89.626" y="84.1143" width="40.104" height="44.4326" filterUnits="userSpaceOnUse" color-interpolation-filters="sRGB">
<feFlood flood-opacity="0" result="BackgroundImageFix"/>
<feColorMatrix in="SourceAlpha" type="matrix" values="0 0 0 0 0 0 0 0 0 0 0 0 0 0 0 0 0 0 127 0" result="hardAlpha"/>
<feOffset dy="2"/>
<feGaussianBlur stdDeviation="1.5"/>
<feComposite in2="hardAlpha" operator="out"/>
<feColorMatrix type="matrix" values="0 0 0 0 1 0 0 0 0 0.354167 0 0 0 0 0.394531 0 0 0 0.36 0"/>
<feBlend mode="normal" in2="BackgroundImageFix" result="effect1_dropShadow_1_16247"/>
<feBlend mode="normal" in="SourceGraphic" in2="effect1_dropShadow_1_16247" result="shape"/>
</filter>
<filter id="filter2_d_1_16247" x="29.4912" y="38.9463" width="30.6809" height="30.6807" filterUnits="userSpaceOnUse" color-interpolation-filters="sRGB">
<feFlood flood-opacity="0" result="BackgroundImageFix"/>
<feColorMatrix in="SourceAlpha" type="matrix" values="0 0 0 0 0 0 0 0 0 0 0 0 0 0 0 0 0 0 127 0" result="hardAlpha"/>
<feOffset dy="4"/>
<feGaussianBlur stdDeviation="3"/>
<feComposite in2="hardAlpha" operator="out"/>
<feColorMatrix type="matrix" values="0 0 0 0 0.976471 0 0 0 0 0.376471 0 0 0 0 0.45098 0 0 0 0.34 0"/>
<feBlend mode="normal" in2="BackgroundImageFix" result="effect1_dropShadow_1_16247"/>
<feBlend mode="normal" in="SourceGraphic" in2="effect1_dropShadow_1_16247" result="shape"/>
</filter>
<filter id="filter3_d_1_16247" x="57.6035" y="40.9463" width="30.6809" height="30.6807" filterUnits="userSpaceOnUse" color-interpolation-filters="sRGB">
<feFlood flood-opacity="0" result="BackgroundImageFix"/>
<feColorMatrix in="SourceAlpha" type="matrix" values="0 0 0 0 0 0 0 0 0 0 0 0 0 0 0 0 0 0 127 0" result="hardAlpha"/>
<feOffset dy="6"/>
<feGaussianBlur stdDeviation="3"/>
<feComposite in2="hardAlpha" operator="out"/>
<feColorMatrix type="matrix" values="0 0 0 0 0.972549 0 0 0 0 0.443137 0 0 0 0 0.415686 0 0 0 0.25 0"/>
<feBlend mode="normal" in2="BackgroundImageFix" result="effect1_dropShadow_1_16247"/>
<feBlend mode="normal" in="SourceGraphic" in2="effect1_dropShadow_1_16247" result="shape"/>
</filter>
<filter id="filter4_d_1_16247" x="85.8584" y="38.0889" width="30.3952" height="30.3955" filterUnits="userSpaceOnUse" color-interpolation-filters="sRGB">
<feFlood flood-opacity="0" result="BackgroundImageFix"/>
<feColorMatrix in="SourceAlpha" type="matrix" values="0 0 0 0 0 0 0 0 0 0 0 0 0 0 0 0 0 0 127 0" result="hardAlpha"/>
<feOffset dy="3"/>
<feGaussianBlur stdDeviation="3"/>
<feComposite in2="hardAlpha" operator="out"/>
<feColorMatrix type="matrix" values="0 0 0 0 0.968627 0 0 0 0 0.501961 0 0 0 0 0.376471 0 0 0 0.44 0"/>
<feBlend mode="normal" in2="BackgroundImageFix" result="effect1_dropShadow_1_16247"/>
<feBlend mode="normal" in="SourceGraphic" in2="effect1_dropShadow_1_16247" result="shape"/>
</filter>
<filter id="filter5_d_1_16247" x="115.829" y="40.9463" width="26.6808" height="26.6807" filterUnits="userSpaceOnUse" color-interpolation-filters="sRGB">
<feFlood flood-opacity="0" result="BackgroundImageFix"/>
<feColorMatrix in="SourceAlpha" type="matrix" values="0 0 0 0 0 0 0 0 0 0 0 0 0 0 0 0 0 0 127 0" result="hardAlpha"/>
<feOffset dy="4"/>
<feGaussianBlur stdDeviation="2"/>
<feComposite in2="hardAlpha" operator="out"/>
<feColorMatrix type="matrix" values="0 0 0 0 0.964706 0 0 0 0 0.607843 0 0 0 0 0.34902 0 0 0 0.35 0"/>
<feBlend mode="normal" in2="BackgroundImageFix" result="effect1_dropShadow_1_16247"/>
<feBlend mode="normal" in="SourceGraphic" in2="effect1_dropShadow_1_16247" result="shape"/>
</filter>
<filter id="filter6_d_1_16247" x="27.6748" y="98.7969" width="53.4526" height="44.2568" filterUnits="userSpaceOnUse" color-interpolation-filters="sRGB">
<feFlood flood-opacity="0" result="BackgroundImageFix"/>
<feColorMatrix in="SourceAlpha" type="matrix" values="0 0 0 0 0 0 0 0 0 0 0 0 0 0 0 0 0 0 127 0" result="hardAlpha"/>
<feOffset dy="2"/>
<feGaussianBlur stdDeviation="4"/>
<feComposite in2="hardAlpha" operator="out"/>
<feColorMatrix type="matrix" values="0 0 0 0 0.952941 0 0 0 0 0.47451 0 0 0 0 0.301961 0 0 0 0.43 0"/>
<feBlend mode="normal" in2="BackgroundImageFix" result="effect1_dropShadow_1_16247"/>
<feBlend mode="normal" in="SourceGraphic" in2="effect1_dropShadow_1_16247" result="shape"/>
</filter>
<clipPath id="clip0_1_16247">
<rect width="174" height="174" rx="24" fill="white"/>
</clipPath>
<clipPath id="clip1_1_16247">
<rect width="174" height="174" fill="white"/>
</clipPath>
</defs>
</svg>
