<svg width="174" height="174" viewBox="0 0 174 174" fill="none" xmlns="http://www.w3.org/2000/svg">
<g clip-path="url(#clip0_1_16340)">
<g clip-path="url(#clip1_1_16340)">
<mask id="mask0_1_16340" style="mask-type:luminance" maskUnits="userSpaceOnUse" x="0" y="0" width="174" height="174">
<path d="M174 0H0V174H174V0Z" fill="white"/>
</mask>
<g mask="url(#mask0_1_16340)">
<path d="M174 0H0V174H174V0Z" fill="#F3794D"/>
<g filter="url(#filter0_d_1_16340)">
<path d="M131.16 28.6992H43.2266C37.7037 28.6992 33.2266 33.1764 33.2266 38.6992V135.998C33.2266 141.521 37.7037 145.998 43.2266 145.998H131.16C136.682 145.998 141.16 141.521 141.16 135.998V38.6992C141.16 33.1764 136.682 28.6992 131.16 28.6992Z" fill="#FF0000" fill-opacity="0.01"/>
</g>
<path d="M133.768 25.4531H40.2314C34.7086 25.4531 30.2314 29.9303 30.2314 35.4531V138.546C30.2314 144.069 34.7086 148.546 40.2314 148.546H133.768C139.291 148.546 143.768 144.069 143.768 138.546V35.4531C143.768 29.9303 139.291 25.4531 133.768 25.4531Z" fill="white"/>
<path opacity="0.6" d="M131.729 116.532H97.3779C95.721 116.532 94.3779 117.875 94.3779 119.532C94.3779 121.189 95.721 122.532 97.3779 122.532H131.729C133.385 122.532 134.729 121.189 134.729 119.532C134.729 117.875 133.385 116.532 131.729 116.532Z" fill="#DCDCDC"/>
<path opacity="0.6" d="M122.862 105.532H97.3779C95.721 105.532 94.3779 106.875 94.3779 108.532C94.3779 110.189 95.721 111.532 97.3779 111.532H122.862C124.519 111.532 125.862 110.189 125.862 108.532C125.862 106.875 124.519 105.532 122.862 105.532Z" fill="#DCDCDC"/>
<g filter="url(#filter1_d_1_16340)">
<path d="M128.296 35.8721H46.459C43.6976 35.8721 41.459 38.1106 41.459 40.8721V75.8357C41.459 78.5971 43.6976 80.8357 46.459 80.8357H128.296C131.057 80.8357 133.296 78.5971 133.296 75.8357V40.8721C133.296 38.1106 131.057 35.8721 128.296 35.8721Z" fill="#FF0000" fill-opacity="0.01"/>
</g>
<path d="M128.728 34.5576H45.2715C41.9578 34.5576 39.2715 37.2439 39.2715 40.5576V76.6005C39.2715 79.9142 41.9578 82.6005 45.2715 82.6005H128.728C132.042 82.6005 134.728 79.9142 134.728 76.6005V40.5576C134.728 37.2439 132.042 34.5576 128.728 34.5576Z" fill="#F3794D"/>
<path d="M56.5 54.2627C56.5 52.882 55.3807 51.7627 54 51.7627C52.6193 51.7627 51.5 52.882 51.5 54.2627V73.5765C51.5 74.9572 52.6193 76.0765 54 76.0765C55.3807 76.0765 56.5 74.9572 56.5 73.5765V54.2627Z" fill="white"/>
<path opacity="0.6" d="M67.5 60.8115C67.5 59.4308 66.3807 58.3115 65 58.3115C63.6193 58.3115 62.5 59.4308 62.5 60.8115V73.5766C62.5 74.9573 63.6193 76.0766 65 76.0766C66.3807 76.0766 67.5 74.9573 67.5 73.5766V60.8115Z" fill="white"/>
<path d="M78.5 43.1299C78.5 41.7492 77.3807 40.6299 76 40.6299C74.6193 40.6299 73.5 41.7492 73.5 43.1299V73.5766C73.5 74.9573 74.6193 76.0766 76 76.0766C77.3807 76.0766 78.5 74.9573 78.5 73.5766V43.1299Z" fill="white"/>
<path opacity="0.6" d="M89.5 55.4609C89.5 54.0802 88.3807 52.9609 87 52.9609C85.6193 52.9609 84.5 54.0802 84.5 55.4609V73.5766C84.5 74.9573 85.6193 76.0766 87 76.0766C88.3807 76.0766 89.5 74.9573 89.5 73.5766V55.4609Z" fill="white"/>
<path d="M100.5 48.3965C100.5 47.0158 99.3807 45.8965 98 45.8965C96.6193 45.8965 95.5 47.0158 95.5 48.3965V73.5768C95.5 74.9575 96.6193 76.0768 98 76.0768C99.3807 76.0768 100.5 74.9575 100.5 73.5768V48.3965Z" fill="white"/>
<path opacity="0.6" d="M111.5 62.9023C111.5 61.5216 110.381 60.4023 109 60.4023C107.619 60.4023 106.5 61.5216 106.5 62.9023V73.5771C106.5 74.9579 107.619 76.0771 109 76.0771C110.381 76.0771 111.5 74.9579 111.5 73.5771V62.9023Z" fill="white"/>
<path d="M122.5 44.4678C122.5 43.0871 121.381 41.9678 120 41.9678C118.619 41.9678 117.5 43.0871 117.5 44.4678V73.5769C117.5 74.9576 118.619 76.0769 120 76.0769C121.381 76.0769 122.5 74.9576 122.5 73.5769V44.4678Z" fill="white"/>
<g filter="url(#filter2_d_1_16340)">
<path d="M81.8774 114.032C81.8774 116.469 81.3976 118.881 80.4652 121.132C79.5328 123.383 78.1662 125.429 76.4434 127.151C74.7206 128.874 72.6753 130.241 70.4244 131.173C68.1734 132.106 65.7609 132.585 63.3245 132.585C60.8881 132.585 58.4755 132.106 56.2245 131.173C53.9736 130.241 51.9283 128.874 50.2055 127.151C48.4827 125.429 47.1161 123.383 46.1837 121.132C45.2514 118.881 44.7715 116.469 44.7715 114.032C44.7715 111.596 45.2514 109.184 46.1837 106.933C47.1161 104.682 48.4827 102.636 50.2055 100.914C51.9283 99.1907 53.9736 97.8241 56.2245 96.8918C58.4755 95.9594 60.8881 95.4795 63.3245 95.4795C65.7609 95.4795 68.1734 95.9594 70.4244 96.8918C72.6753 97.8241 74.7206 99.1907 76.4434 100.914C78.1662 102.636 79.5328 104.682 80.4652 106.933C81.3976 109.184 81.8774 111.596 81.8774 114.032Z" stroke="#7454F5" stroke-opacity="0.01" stroke-width="11"/>
</g>
<path d="M81.8774 114.032C81.8774 116.469 81.3976 118.881 80.4652 121.132C79.5328 123.383 78.1662 125.429 76.4434 127.151C74.7206 128.874 72.6753 130.241 70.4244 131.173C68.1734 132.106 65.7609 132.585 63.3245 132.585C60.8881 132.585 58.4755 132.106 56.2245 131.173C53.9736 130.241 51.9283 128.874 50.2055 127.151C48.4827 125.429 47.1161 123.383 46.1837 121.132C45.2514 118.881 44.7715 116.469 44.7715 114.032C44.7715 111.596 45.2514 109.184 46.1837 106.933C47.1161 104.682 48.4827 102.636 50.2055 100.914C51.9283 99.1907 53.9736 97.8241 56.2245 96.8918C58.4755 95.9594 60.8881 95.4795 63.3245 95.4795C65.7609 95.4795 68.1734 95.9594 70.4244 96.8918C72.6753 97.8241 74.7206 99.1907 76.4434 100.914C78.1662 102.636 79.5328 104.682 80.4652 106.933C81.3976 109.184 81.8774 111.596 81.8774 114.032Z" stroke="#F3794D" stroke-width="11"/>
<path opacity="0.6" d="M78.7924 103.788C80.7665 106.768 81.8374 110.256 81.8763 113.83C81.9153 117.405 80.9206 120.915 79.012 123.938C77.1033 126.961 74.362 129.368 71.1177 130.869C67.8734 132.371 64.2644 132.903 60.7247 132.402" stroke="white" stroke-width="11" stroke-linecap="round"/>
</g>
</g>
</g>
<defs>
<filter id="filter0_d_1_16340" x="19.2266" y="24.6992" width="135.933" height="145.299" filterUnits="userSpaceOnUse" color-interpolation-filters="sRGB">
<feFlood flood-opacity="0" result="BackgroundImageFix"/>
<feColorMatrix in="SourceAlpha" type="matrix" values="0 0 0 0 0 0 0 0 0 0 0 0 0 0 0 0 0 0 127 0" result="hardAlpha"/>
<feOffset dy="10"/>
<feGaussianBlur stdDeviation="7"/>
<feComposite in2="hardAlpha" operator="out"/>
<feColorMatrix type="matrix" values="0 0 0 0 0.254374 0 0 0 0 0.0815537 0 0 0 0 0.0269789 0 0 0 0.13 0"/>
<feBlend mode="normal" in2="BackgroundImageFix" result="effect1_dropShadow_1_16340"/>
<feBlend mode="normal" in="SourceGraphic" in2="effect1_dropShadow_1_16340" result="shape"/>
</filter>
<filter id="filter1_d_1_16340" x="35.459" y="31.8721" width="103.837" height="56.9639" filterUnits="userSpaceOnUse" color-interpolation-filters="sRGB">
<feFlood flood-opacity="0" result="BackgroundImageFix"/>
<feColorMatrix in="SourceAlpha" type="matrix" values="0 0 0 0 0 0 0 0 0 0 0 0 0 0 0 0 0 0 127 0" result="hardAlpha"/>
<feOffset dy="2"/>
<feGaussianBlur stdDeviation="3"/>
<feComposite in2="hardAlpha" operator="out"/>
<feColorMatrix type="matrix" values="0 0 0 0 0.970999 0 0 0 0 0.485253 0 0 0 0 0.133506 0 0 0 0.4 0"/>
<feBlend mode="normal" in2="BackgroundImageFix" result="effect1_dropShadow_1_16340"/>
<feBlend mode="normal" in="SourceGraphic" in2="effect1_dropShadow_1_16340" result="shape"/>
</filter>
<filter id="filter2_d_1_16340" x="33.2715" y="85.9795" width="60.1059" height="60.1055" filterUnits="userSpaceOnUse" color-interpolation-filters="sRGB">
<feFlood flood-opacity="0" result="BackgroundImageFix"/>
<feColorMatrix in="SourceAlpha" type="matrix" values="0 0 0 0 0 0 0 0 0 0 0 0 0 0 0 0 0 0 127 0" result="hardAlpha"/>
<feOffset dy="2"/>
<feGaussianBlur stdDeviation="3"/>
<feComposite in2="hardAlpha" operator="out"/>
<feColorMatrix type="matrix" values="0 0 0 0 0.952941 0 0 0 0 0.47451 0 0 0 0 0.301961 0 0 0 0.26 0"/>
<feBlend mode="normal" in2="BackgroundImageFix" result="effect1_dropShadow_1_16340"/>
<feBlend mode="normal" in="SourceGraphic" in2="effect1_dropShadow_1_16340" result="shape"/>
</filter>
<clipPath id="clip0_1_16340">
<rect width="174" height="174" rx="24" fill="white"/>
</clipPath>
<clipPath id="clip1_1_16340">
<rect width="174" height="174" fill="white"/>
</clipPath>
</defs>
</svg>
