<svg width="122" height="45" viewBox="0 0 122 45" fill="none" xmlns="http://www.w3.org/2000/svg">
<path fill-rule="evenodd" clip-rule="evenodd" d="M26.8908 15.2172L20 9.15434L0 26.7514V2.5H40V10.4113C40 16.4741 31.7647 19.5055 26.8908 15.2172ZM13.1092 29.7828L20 35.8457L40 18.2486V42.5H0V34.5888C0 28.5259 8.23529 25.4945 13.1092 29.7828Z" fill="#FFBB54"/>
<path d="M62.49 35V12.65H65.43V32.3H75.24V35H62.49ZM78.5447 35V12.65H81.2447L89.6147 24.56H88.2347L96.5447 12.65H99.2447V35H96.2747V16.37L97.3247 16.7L89.0147 28.4H88.7747L80.5547 16.7L81.4847 16.37V35H78.5447ZM111.889 35.36C110.469 35.36 109.169 35.1 107.989 34.58C106.809 34.04 105.809 33.31 104.989 32.39C104.169 31.47 103.579 30.44 103.219 29.3L105.769 28.25C106.309 29.69 107.109 30.8 108.169 31.58C109.249 32.34 110.509 32.72 111.949 32.72C112.829 32.72 113.599 32.58 114.259 32.3C114.919 32.02 115.429 31.63 115.789 31.13C116.169 30.61 116.359 30.01 116.359 29.33C116.359 28.39 116.089 27.65 115.549 27.11C115.029 26.55 114.259 26.13 113.239 25.85L109.129 24.59C107.509 24.09 106.269 23.3 105.409 22.22C104.549 21.14 104.119 19.9 104.119 18.5C104.119 17.28 104.409 16.21 104.989 15.29C105.589 14.35 106.409 13.62 107.449 13.1C108.509 12.56 109.709 12.29 111.049 12.29C112.389 12.29 113.599 12.53 114.679 13.01C115.779 13.49 116.709 14.14 117.469 14.96C118.229 15.76 118.789 16.68 119.149 17.72L116.629 18.77C116.149 17.51 115.429 16.56 114.469 15.92C113.509 15.26 112.379 14.93 111.079 14.93C110.279 14.93 109.569 15.07 108.949 15.35C108.349 15.61 107.879 16 107.539 16.52C107.219 17.02 107.059 17.62 107.059 18.32C107.059 19.14 107.319 19.87 107.839 20.51C108.359 21.15 109.149 21.64 110.209 21.98L113.959 23.09C115.719 23.63 117.049 24.4 117.949 25.4C118.849 26.4 119.299 27.64 119.299 29.12C119.299 30.34 118.979 31.42 118.339 32.36C117.719 33.3 116.849 34.04 115.729 34.58C114.629 35.1 113.349 35.36 111.889 35.36Z" fill="#141522"/>
</svg>
