<svg width="48" height="49" viewBox="0 0 48 49" fill="none" xmlns="http://www.w3.org/2000/svg">
<rect y="0.5" width="48" height="48" rx="24" fill="#D9F3F8"/>
<path d="M22.4902 14.7301L17.5002 16.6101C16.3502 17.0401 15.4102 18.4001 15.4102 19.6201V27.0501C15.4102 28.2301 16.1902 29.7801 17.1402 30.4901L21.4402 33.7001C22.8502 34.7601 25.1702 34.7601 26.5802 33.7001L30.8802 30.4901C31.8302 29.7801 32.6102 28.2301 32.6102 27.0501V19.6201C32.6102 18.3901 31.6702 17.0301 30.5202 16.6001L25.5302 14.7301C24.6802 14.4201 23.3202 14.4201 22.4902 14.7301Z" stroke="#2F9DD8" stroke-width="1.5" stroke-linecap="round" stroke-linejoin="round"/>
<path d="M24 25C25.1046 25 26 24.1046 26 23C26 21.8954 25.1046 21 24 21C22.8954 21 22 21.8954 22 23C22 24.1046 22.8954 25 24 25Z" stroke="#2F9DD8" stroke-width="1.5" stroke-miterlimit="10" stroke-linecap="round" stroke-linejoin="round"/>
<path d="M24 25V28" stroke="#2F9DD8" stroke-width="1.5" stroke-miterlimit="10" stroke-linecap="round" stroke-linejoin="round"/>
</svg>
