<svg width="68" height="28" viewBox="0 0 68 28" fill="none" xmlns="http://www.w3.org/2000/svg">
<path d="M4.746 20.168C4.08333 20.168 3.48133 20.042 2.94 19.79C2.39867 19.538 1.94133 19.202 1.568 18.782C1.19467 18.3527 0.928667 17.8813 0.77 17.368L1.778 16.99C2.02067 17.6993 2.39867 18.2407 2.912 18.614C3.42533 18.978 4.03667 19.16 4.746 19.16C5.194 19.16 5.586 19.09 5.922 18.95C6.26733 18.8007 6.53333 18.5953 6.72 18.334C6.90667 18.0727 7 17.7693 7 17.424C7 16.9107 6.86 16.514 6.58 16.234C6.3 15.954 5.89867 15.7393 5.376 15.59L3.5 15.03C2.76267 14.8153 2.19333 14.456 1.792 13.952C1.4 13.448 1.204 12.874 1.204 12.23C1.204 11.6793 1.33933 11.194 1.61 10.774C1.88067 10.3447 2.24933 10.0087 2.716 9.766C3.192 9.52333 3.72867 9.402 4.326 9.402C4.95133 9.402 5.51133 9.51867 6.006 9.752C6.51 9.976 6.93467 10.2747 7.28 10.648C7.62533 11.0213 7.87267 11.4367 8.022 11.894L7.042 12.286C6.818 11.67 6.468 11.2033 5.992 10.886C5.52533 10.5687 4.97467 10.41 4.34 10.41C3.93867 10.41 3.584 10.48 3.276 10.62C2.97733 10.76 2.744 10.9607 2.576 11.222C2.408 11.4833 2.324 11.7913 2.324 12.146C2.324 12.5753 2.45933 12.9627 2.73 13.308C3.00067 13.644 3.416 13.896 3.976 14.064L5.628 14.554C6.44933 14.7967 7.07 15.1467 7.49 15.604C7.91 16.0613 8.12 16.6353 8.12 17.326C8.12 17.886 7.97533 18.3807 7.686 18.81C7.406 19.23 7.00933 19.5613 6.496 19.804C5.992 20.0467 5.40867 20.168 4.746 20.168ZM4.144 21.4V8.17H5.124V21.4H4.144ZM11.5848 20V10.55H9.62478V9.57H12.7048V20H11.5848ZM18.4741 20.168C17.9328 20.168 17.4288 20.0747 16.9621 19.888C16.5048 19.7013 16.1034 19.4353 15.7581 19.09C15.4128 18.7447 15.1514 18.334 14.9741 17.858L15.8281 17.438C16.0428 17.9793 16.3928 18.4087 16.8781 18.726C17.3728 19.034 17.9048 19.188 18.4741 19.188C18.9314 19.188 19.3374 19.0807 19.6921 18.866C20.0561 18.6513 20.3408 18.362 20.5461 17.998C20.7514 17.6247 20.8541 17.2093 20.8541 16.752C20.8541 16.276 20.7468 15.856 20.5321 15.492C20.3268 15.128 20.0468 14.8433 19.6921 14.638C19.3374 14.4233 18.9361 14.316 18.4881 14.316C18.0308 14.316 17.6061 14.4233 17.2141 14.638C16.8314 14.8433 16.5514 15.0953 16.3741 15.394L15.4921 15.226L16.2761 9.57H21.5541V10.55H16.6821L17.1161 10.172L16.4861 14.624L16.0521 14.428C16.3788 14.0267 16.7614 13.742 17.2001 13.574C17.6388 13.3967 18.0868 13.308 18.5441 13.308C19.2161 13.308 19.8088 13.4667 20.3221 13.784C20.8354 14.092 21.2368 14.5073 21.5261 15.03C21.8248 15.5433 21.9741 16.1173 21.9741 16.752C21.9741 17.396 21.8201 17.9793 21.5121 18.502C21.2134 19.0153 20.7981 19.4213 20.2661 19.72C19.7434 20.0187 19.1461 20.168 18.4741 20.168ZM28.011 20.168C27.1897 20.168 26.4664 19.944 25.841 19.496C25.225 19.0387 24.7444 18.4087 24.399 17.606C24.0537 16.794 23.881 15.8513 23.881 14.778C23.881 13.7047 24.0537 12.7667 24.399 11.964C24.7444 11.152 25.225 10.522 25.841 10.074C26.457 9.626 27.1757 9.402 27.997 9.402C28.8184 9.402 29.537 9.626 30.153 10.074C30.769 10.522 31.2497 11.152 31.595 11.964C31.9404 12.7667 32.113 13.7047 32.113 14.778C32.113 15.8513 31.9404 16.794 31.595 17.606C31.259 18.418 30.783 19.048 30.167 19.496C29.551 19.944 28.8324 20.168 28.011 20.168ZM28.011 19.118C28.6084 19.118 29.131 18.936 29.579 18.572C30.027 18.208 30.377 17.704 30.629 17.06C30.881 16.4067 31.007 15.646 31.007 14.778C31.007 13.91 30.881 13.154 30.629 12.51C30.377 11.8567 30.027 11.3527 29.579 10.998C29.131 10.634 28.6037 10.452 27.997 10.452C27.3997 10.452 26.877 10.634 26.429 10.998C25.981 11.3527 25.631 11.8567 25.379 12.51C25.127 13.154 25.001 13.91 25.001 14.778C25.001 15.6367 25.127 16.3927 25.379 17.046C25.631 17.6993 25.981 18.208 26.429 18.572C26.8864 18.936 27.4137 19.118 28.011 19.118ZM34.569 20V18.46H35.689V20H34.569ZM42.2708 20.168C41.4495 20.168 40.7261 19.944 40.1008 19.496C39.4848 19.0387 39.0041 18.4087 38.6588 17.606C38.3135 16.794 38.1408 15.8513 38.1408 14.778C38.1408 13.7047 38.3135 12.7667 38.6588 11.964C39.0041 11.152 39.4848 10.522 40.1008 10.074C40.7168 9.626 41.4355 9.402 42.2568 9.402C43.0781 9.402 43.7968 9.626 44.4128 10.074C45.0288 10.522 45.5095 11.152 45.8548 11.964C46.2001 12.7667 46.3728 13.7047 46.3728 14.778C46.3728 15.8513 46.2001 16.794 45.8548 17.606C45.5188 18.418 45.0428 19.048 44.4268 19.496C43.8108 19.944 43.0921 20.168 42.2708 20.168ZM42.2708 19.118C42.8681 19.118 43.3908 18.936 43.8388 18.572C44.2868 18.208 44.6368 17.704 44.8888 17.06C45.1408 16.4067 45.2668 15.646 45.2668 14.778C45.2668 13.91 45.1408 13.154 44.8888 12.51C44.6368 11.8567 44.2868 11.3527 43.8388 10.998C43.3908 10.634 42.8635 10.452 42.2568 10.452C41.6595 10.452 41.1368 10.634 40.6888 10.998C40.2408 11.3527 39.8908 11.8567 39.6388 12.51C39.3868 13.154 39.2608 13.91 39.2608 14.778C39.2608 15.6367 39.3868 16.3927 39.6388 17.046C39.8908 17.6993 40.2408 18.208 40.6888 18.572C41.1461 18.936 41.6735 19.118 42.2708 19.118ZM52.5247 20.168C51.7034 20.168 50.9801 19.944 50.3547 19.496C49.7387 19.0387 49.2581 18.4087 48.9127 17.606C48.5674 16.794 48.3947 15.8513 48.3947 14.778C48.3947 13.7047 48.5674 12.7667 48.9127 11.964C49.2581 11.152 49.7387 10.522 50.3547 10.074C50.9707 9.626 51.6894 9.402 52.5107 9.402C53.3321 9.402 54.0507 9.626 54.6667 10.074C55.2827 10.522 55.7634 11.152 56.1087 11.964C56.4541 12.7667 56.6267 13.7047 56.6267 14.778C56.6267 15.8513 56.4541 16.794 56.1087 17.606C55.7727 18.418 55.2967 19.048 54.6807 19.496C54.0647 19.944 53.3461 20.168 52.5247 20.168ZM52.5247 19.118C53.1221 19.118 53.6447 18.936 54.0927 18.572C54.5407 18.208 54.8907 17.704 55.1427 17.06C55.3947 16.4067 55.5207 15.646 55.5207 14.778C55.5207 13.91 55.3947 13.154 55.1427 12.51C54.8907 11.8567 54.5407 11.3527 54.0927 10.998C53.6447 10.634 53.1174 10.452 52.5107 10.452C51.9134 10.452 51.3907 10.634 50.9427 10.998C50.4947 11.3527 50.1447 11.8567 49.8927 12.51C49.6407 13.154 49.5147 13.91 49.5147 14.778C49.5147 15.6367 49.6407 16.3927 49.8927 17.046C50.1447 17.6993 50.4947 18.208 50.9427 18.572C51.4001 18.936 51.9274 19.118 52.5247 19.118ZM62.7786 20.168C61.9573 20.168 61.234 19.944 60.6086 19.496C59.9926 19.0387 59.512 18.4087 59.1666 17.606C58.8213 16.794 58.6486 15.8513 58.6486 14.778C58.6486 13.7047 58.8213 12.7667 59.1666 11.964C59.512 11.152 59.9926 10.522 60.6086 10.074C61.2246 9.626 61.9433 9.402 62.7646 9.402C63.586 9.402 64.3046 9.626 64.9206 10.074C65.5366 10.522 66.0173 11.152 66.3626 11.964C66.708 12.7667 66.8806 13.7047 66.8806 14.778C66.8806 15.8513 66.708 16.794 66.3626 17.606C66.0266 18.418 65.5506 19.048 64.9346 19.496C64.3186 19.944 63.6 20.168 62.7786 20.168ZM62.7786 19.118C63.376 19.118 63.8986 18.936 64.3466 18.572C64.7946 18.208 65.1446 17.704 65.3966 17.06C65.6486 16.4067 65.7746 15.646 65.7746 14.778C65.7746 13.91 65.6486 13.154 65.3966 12.51C65.1446 11.8567 64.7946 11.3527 64.3466 10.998C63.8986 10.634 63.3713 10.452 62.7646 10.452C62.1673 10.452 61.6446 10.634 61.1966 10.998C60.7486 11.3527 60.3986 11.8567 60.1466 12.51C59.8946 13.154 59.7686 13.91 59.7686 14.778C59.7686 15.6367 59.8946 16.3927 60.1466 17.046C60.3986 17.6993 60.7486 18.208 61.1966 18.572C61.654 18.936 62.1813 19.118 62.7786 19.118Z" fill="#F24E1E"/>
<path d="M0 15.492H67.8886V16.052H0V15.492Z" fill="#F24E1E"/>
</svg>
