<svg width="18" height="18" viewBox="0 0 18 18" fill="none" xmlns="http://www.w3.org/2000/svg">
<path d="M9 17.0979C8.4825 17.0979 7.995 16.8354 7.65 16.3779L6.525 14.8779C6.5025 14.8479 6.4125 14.8104 6.375 14.8029H6C2.8725 14.8029 0.9375 13.9554 0.9375 9.74039V5.99039C0.9375 2.67539 2.685 0.927887 6 0.927887H12C15.315 0.927887 17.0625 2.67539 17.0625 5.99039V9.74039C17.0625 13.0554 15.315 14.8029 12 14.8029H11.625C11.565 14.8029 11.5125 14.8329 11.475 14.8779L10.35 16.3779C10.005 16.8354 9.5175 17.0979 9 17.0979ZM6 2.05289C3.315 2.05289 2.0625 3.30539 2.0625 5.99039V9.74039C2.0625 13.1304 3.225 13.6779 6 13.6779H6.375C6.7575 13.6779 7.1925 13.8954 7.425 14.2029L8.55 15.7029C8.8125 16.0479 9.1875 16.0479 9.45 15.7029L10.575 14.2029C10.8225 13.8729 11.2125 13.6779 11.625 13.6779H12C14.685 13.6779 15.9375 12.4254 15.9375 9.74039V5.99039C15.9375 3.30539 14.685 2.05289 12 2.05289H6Z" fill="#9C9CA4"/>
<path d="M9 8.99039C8.58 8.99039 8.25 8.65289 8.25 8.24039C8.25 7.82789 8.5875 7.49039 9 7.49039C9.4125 7.49039 9.75 7.82789 9.75 8.24039C9.75 8.65289 9.42 8.99039 9 8.99039Z" fill="#9C9CA4"/>
<path d="M12 8.99039C11.58 8.99039 11.25 8.65289 11.25 8.24039C11.25 7.82789 11.5875 7.49039 12 7.49039C12.4125 7.49039 12.75 7.82789 12.75 8.24039C12.75 8.65289 12.42 8.99039 12 8.99039Z" fill="#9C9CA4"/>
<path d="M6 8.99039C5.58 8.99039 5.25 8.65289 5.25 8.24039C5.25 7.82789 5.5875 7.49039 6 7.49039C6.4125 7.49039 6.75 7.82789 6.75 8.24039C6.75 8.65289 6.42 8.99039 6 8.99039Z" fill="#9C9CA4"/>
</svg>
