<svg width="20" height="17" viewBox="0 0 20 17" fill="none" xmlns="http://www.w3.org/2000/svg">
<path d="M18.72 5.81C18.02 6.03 17.25 6.07 16.45 5.87C15.11 5.52 14.02 4.45 13.65 3.11C13.47 2.46 13.46 1.82 13.57 1.24C13.7 0.6 13.25 0 12.61 0H5C2 0 0 1.5 0 5V12C0 15.5 2 17 5 17H15C18 17 20 15.5 20 12V6.76C20 6.1 19.36 5.6 18.72 5.81ZM13.52 7.65L12.34 8.59C11.68 9.12 10.84 9.38 10 9.38C9.16 9.38 8.31 9.12 7.66 8.59L4.53 6.09C4.21 5.83 4.16 5.35 4.41 5.03C4.67 4.71 5.14 4.65 5.46 4.91L8.59 7.41C9.35 8.02 10.64 8.02 11.4 7.41L12.58 6.47C12.9 6.21 13.38 6.26 13.63 6.59C13.89 6.91 13.84 7.39 13.52 7.65Z" fill="#2F9DD8"/>
</svg>
