<svg width="49" height="48" viewBox="0 0 49 48" fill="none" xmlns="http://www.w3.org/2000/svg">
<rect x="0.5" y="-0.000488281" width="48" height="48" rx="24" fill="#DB5962"/>
<path d="M24.5 13.9995C18.99 13.9995 14.5 18.4895 14.5 23.9995C14.5 29.5095 18.99 33.9995 24.5 33.9995C30.01 33.9995 34.5 29.5095 34.5 23.9995C34.5 18.4895 30.01 13.9995 24.5 13.9995ZM23.75 19.9995C23.75 19.5895 24.09 19.2495 24.5 19.2495C24.91 19.2495 25.25 19.5895 25.25 19.9995V24.9995C25.25 25.4095 24.91 25.7495 24.5 25.7495C24.09 25.7495 23.75 25.4095 23.75 24.9995V19.9995ZM25.42 28.3795C25.37 28.5095 25.3 28.6095 25.21 28.7095C25.11 28.7995 25 28.8695 24.88 28.9195C24.76 28.9695 24.63 28.9995 24.5 28.9995C24.37 28.9995 24.24 28.9695 24.12 28.9195C24 28.8695 23.89 28.7995 23.79 28.7095C23.7 28.6095 23.63 28.5095 23.58 28.3795C23.53 28.2595 23.5 28.1295 23.5 27.9995C23.5 27.8695 23.53 27.7395 23.58 27.6195C23.63 27.4995 23.7 27.3895 23.79 27.2895C23.89 27.1995 24 27.1295 24.12 27.0795C24.36 26.9795 24.64 26.9795 24.88 27.0795C25 27.1295 25.11 27.1995 25.21 27.2895C25.3 27.3895 25.37 27.4995 25.42 27.6195C25.47 27.7395 25.5 27.8695 25.5 27.9995C25.5 28.1295 25.47 28.2595 25.42 28.3795Z" fill="white"/>
</svg>
